/* XPM */
static char *af96b45446064d7b9e4b440d3ddf775e457imsc98Uj1BzR9[] = {
/* columns rows colors chars-per-pixel */
"32 32 229 2 ",
"   c #1D0400",
".  c #1B0C00",
"X  c #1A1500",
"o  c #250400",
"O  c #2B0400",
"+  c #240B00",
"@  c #2B0A00",
"#  c #330400",
"$  c #390100",
"%  c #370C00",
"&  c #291100",
"*  c #420000",
"=  c #4E0000",
"-  c #400800",
";  c #540000",
":  c #640000",
">  c #4F3905",
",  c #623A06",
"<  c #3B4300",
"1  c #325F00",
"2  c #3E6401",
"3  c #4B4404",
"4  c #56460A",
"5  c #485604",
"6  c #534F10",
"7  c #6E7A29",
"8  c #903E18",
"9  c #B92816",
"0  c #DD0B0D",
"q  c #DC1609",
"w  c #DA0E15",
"e  c #C91A1A",
"r  c #D41412",
"t  c #DC1315",
"y  c #D41915",
"u  c #D31B1A",
"i  c #DD1A1B",
"p  c #D8151A",
"a  c #C41A0D",
"s  c #E40D0B",
"d  c #EC0D0D",
"f  c #E80D06",
"g  c #F20D0D",
"h  c #E4120D",
"j  c #EA130D",
"k  c #F2150B",
"l  c #E40D13",
"z  c #EC0C14",
"x  c #EC0D1A",
"c  c #E30711",
"v  c #F20B13",
"b  c #F00E1C",
"n  c #E41313",
"m  c #EB1314",
"M  c #E3131A",
"N  c #E31A1D",
"B  c #EB1617",
"V  c #F31519",
"C  c #C72814",
"Z  c #D72315",
"A  c #C2200B",
"S  c #D91B23",
"D  c #CD1F21",
"F  c #E31621",
"G  c #D92523",
"H  c #CA3E2D",
"J  c #D93D3D",
"K  c #CE3131",
"L  c #E53938",
"P  c #834111",
"I  c #805427",
"U  c #B64A36",
"Y  c #AD513C",
"T  c #B74A2E",
"R  c #CC4535",
"E  c #C84937",
"W  c #D14839",
"Q  c #C24A2F",
"!  c #AB5545",
"~  c #B75242",
"^  c #8C7E41",
"/  c #CD4848",
"(  c #D94642",
")  c #E25149",
"_  c #339E00",
"`  c #39A60B",
"'  c #58891A",
"]  c #449815",
"[  c #5B971D",
"{  c #57991D",
"}  c #40970A",
"|  c #649D1E",
" . c #629D0F",
".. c #46A316",
"X. c #5EA21E",
"o. c #59A91B",
"O. c #40A40E",
"+. c #64A11A",
"@. c #70A21D",
"#. c #489527",
"$. c #5D9C2A",
"%. c #599924",
"&. c #578E30",
"*. c #649D26",
"=. c #649D2B",
"-. c #6C9F2C",
";. c #719D2B",
":. c #659C34",
">. c #6A9D33",
",. c #6D9435",
"<. c #769634",
"1. c #5EA224",
"2. c #5CA727",
"3. c #5DB32D",
"4. c #65A426",
"5. c #6DA524",
"6. c #64AB24",
"7. c #6BAA25",
"8. c #65A32B",
"9. c #6BA62B",
"0. c #65AA2A",
"q. c #6BA82E",
"w. c #71AC2C",
"e. c #78A72A",
"r. c #6DB32D",
"t. c #6CB729",
"y. c #73B22C",
"u. c #76B72B",
"i. c #64A134",
"p. c #6CA434",
"a. c #64AA34",
"s. c #6CAB33",
"d. c #6BAC3A",
"f. c #6EA53C",
"g. c #72A335",
"h. c #72AD34",
"j. c #73AD3B",
"k. c #7AAE3E",
"l. c #78A538",
"z. c #6DB435",
"x. c #6DB33B",
"c. c #6DBA38",
"v. c #73B434",
"b. c #7AB235",
"n. c #72BB33",
"m. c #74B43B",
"M. c #7AB53B",
"N. c #75BC3C",
"B. c #7ABB3B",
"V. c #7AB937",
"C. c #7DC23C",
"Z. c #7DC73B",
"A. c #759E49",
"S. c #799A56",
"D. c #6A9142",
"F. c #6DAA41",
"G. c #79AA46",
"H. c #75B341",
"J. c #7BB543",
"K. c #74BA43",
"L. c #7CBB43",
"P. c #7BBD4A",
"I. c #78B64A",
"U. c #7DB553",
"Y. c #7DBB51",
"T. c #7AB759",
"R. c #77AB58",
"E. c #7CAF60",
"W. c #7BC242",
"Q. c #7EC34B",
"!. c #76C545",
"~. c #7EC251",
"^. c #8E9B3F",
"/. c #93A73D",
"(. c #81BE3C",
"). c #85B837",
"_. c #82C23C",
"`. c #84C436",
"'. c #8B954A",
"]. c #849F40",
"[. c #94974A",
"{. c #90944F",
"}. c #AA925C",
"|. c #86AB49",
" X c #83BE43",
".X c #8DB34E",
"XX c #83BC4C",
"oX c #8ABC4C",
"OX c #87B646",
"+X c #95BB4C",
"@X c #88A856",
"#X c #97AB55",
"$X c #87B757",
"%X c #98B25A",
"&X c #9CA04B",
"*X c #A3A949",
"=X c #A7A457",
"-X c #A3B758",
";X c #849B6B",
":X c #8EB462",
">X c #97B865",
",X c #91A86B",
"<X c #A1A76B",
"1X c #B5AA69",
"2X c #AEBA74",
"3X c #84C444",
"4X c #8AC444",
"5X c #84C34B",
"6X c #8BC44A",
"7X c #8CCB4C",
"8X c #84CA49",
"9X c #94C94D",
"0X c #8BD14A",
"qX c #8CC553",
"wX c #8BCC54",
"eX c #88C955",
"rX c #95C659",
"tX c #8CD556",
"yX c #93D253",
"uX c #92D15C",
"iX c #9BC466",
"pX c #9DDD62",
"aX c #FF8B8A",
"sX c #FF928D",
"dX c #FF8E90",
"fX c #FF9194",
"gX c #FF9B99",
"hX c #FF9B93",
"jX c #FCA19C",
/* pixels */
"G.$.2.!.4.9.5.| 8.8.G.G.k.9.%.j.a.K.oXrX$XXXk. Xn.t.7.X.6.6.[ -.",
"' s.c.!.L.h.5.(.B.J.p.p.k.XX X' K.K.oXoXJ.j.h.4.v.r.0.C.W.N. X*.",
").+.0.tX8.3X7XB.7XW.d.$.p.k.4.v.6X5XOX X1.z.V.b.B.{ B.3X5XwXv.w.",
"`.`.B.x.0.8.M.7X3XN.m.j.1 2 ;.l. X6X X8X..o.X.r.0.N.4.9.m.XX8X7.",
"0X_.h.8.K.x.H.J.5XuX8.l.5 < 5 ].oXW.z.3.` _ } 0.eXm.s.9.9.h.9.9.",
"C.C.m.H.P.~.P.5XJ.L.qXG.'.6 6 5 OXm.] ` ` ` ] c.K.x.L.M.9.q.v.s.",
"v.v.3XP.~.P.4X_.(.L.p.iX'.3 4 3 7 *.] ..` ..] x.!.x.J.qXM.+.0.s.",
"4.v.L.wXx.L.y.u.5.4X$X:X<X6 > 4 5 ' %.] #.#.a.Q.5XP.J.J.5XB.4.0.",
"V.m.a.5XeXyX4X(.).OX:X,X,X'.> 4 < ' $.#.&.R.XXJ.XXH.qXJ.P.2.y.y.",
"8.{ Q.m.s.9.l.+X/.=X. +   }.I , 3 7 7 X +   2X%X|.k.g.p.s.z.B.0X",
"qXwXm.s.oX|..X[.o * U E ~ ; = 8 P * ; E 9 9 = @ #Xl.g.M.v.n.tXz.",
"s.qXm.[ g.<.&XO ! / L L L ( W R E R L p V w J Y O &X.XM.V.yXwXQ.",
"| [ q.h.e.^.@ ! J S F l N r r y i N 0 l d l S ) U - *X).L.!.Q.P.",
"y.w.m.XX.X1X* / L F w S y i 0 V z z d m m m n u J ; =XOXd.x.5X8.",
"e.b.P.T.2X@ U L i e gXgXhXsXt g g f k m 0 s s n Z T . @XU.H.s.b.",
"e.w.I.E.;Xo W y p e gXjXhXsXt g f k f s B h V s q 9 @ S.G.$.M.9X",
"(.h.rXD.,Xo R u D dXgXjXaXu M d k j h n n n x x j 9 O S.U.P.5X X",
"X.L.>.A.;X  ( u e fXfXdXG t l m d d h m m x x b d C O ,X$XwXpX3X",
"8.8.:.A.S.o 9 t M p fXaXr B l z z z j g v v x z v a % @XU.Q.3Xu.",
"*.=.f.I.,.. Q u M M y u n s m z x x d d g v z n N H @ A.:.s.y.+.",
"$.j.XXJ.+X*X* W p B q q s m h m z z h h m m j y W * [.$XwXs.4X5.",
"I.%.9.yX@./.& Y u s h h V z s f g d h n m h q A Y o #Xk.wXwX3Xw.",
"x.W.r.u. .e.2X$ e m j j c z j k g g h n d s q C $ <X<.).oXJ.5Xd.",
"N.0X7.+.y.9X@X@ W p l m l n j f g d h m z s Z T + @Xk.| -.k.d.a.",
"Z.6.4Xb._.7X.X=X; J i l n B s m d d n s m i ) $ =X.X4.w.p.j.d.a.",
"o.6.6X9. X5X6X-X# U D M t n w M M M h n 0 e ~ o @X6Xn._.5Xs.$.0.",
"0.3X5XqXqXL.V.;.'.% R u r N S u u u r i G R $ <XrX8Xn.t.c.x.v.0.",
"v.8.x.eXXXqX8X3XiX=X* Q R H E : : E W R Q = 1X%XJ.W.n.n.Z.2.0._.",
"p.s.!.!.I.i.5XW.1.rX#X. & o + ^ }.  @ O @ 1X%XrX5Xv.q.9.t.6.3X6X",
"J.I.Q.3.Y.uXH.a.z.%.p.G.@X@X>X$X$XiX@X>X%X|.XXP.%.L.H.p.N.Z.7X X",
"*.L.s.$.$.f.>.p.L.4.j.>.p.I.:.G.G.Y.G.:.i.s.z.4.h.p.F.Y.eX0XyXb.",
"9.4.*.=.>.>.,.f.m.3X6XJ.L.eXXXi.F.d.H.x.K.2.8XC.V.XXU.T.K.N.7X3X"
};
