/* XPM */
static char *_5ebcad2a2d84f84a40b2abfa63844a0q4EJcHau8Q2erOy0[] = {
/* columns rows colors chars-per-pixel */
"32 32 96 2 ",
"   c #2DC31E",
".  c #20F00B",
"X  c #1EF708",
"o  c #1FF709",
"O  c #1EF808",
"+  c #29D118",
"@  c #25DE13",
"#  c #22E90E",
"$  c #2DC11E",
"%  c #2BC91B",
"&  c #1FF40A",
"*  c #1FF609",
"=  c #2ACE19",
"-  c #24E211",
";  c #1FF509",
":  c #1FF409",
">  c #23E60F",
",  c #2EC01F",
"<  c #28D317",
"1  c #25E012",
"2  c #2DC21E",
"3  c #2ACC1A",
"4  c #29CF19",
"5  c #23E510",
"6  c #25DE12",
"7  c #2CC51D",
"8  c #2CC81C",
"9  c #2CC61C",
"0  c #2BC81B",
"q  c #20F20A",
"w  c #29D018",
"e  c #26DC13",
"r  c #1EF908",
"t  c #2CC71C",
"y  c #2EBF1F",
"u  c #28D516",
"i  c #21EF0B",
"p  c #21EE0C",
"a  c #24E410",
"s  c #2BCB1A",
"d  c #23E80F",
"f  c #28D616",
"g  c #20F30A",
"h  c #22EB0D",
"j  c #21EF0C",
"k  c #27D815",
"l  c #1EF907",
"z  c #23E70F",
"x  c #2ACF19",
"c  c #23E80E",
"v  c #24E311",
"b  c #26DA14",
"n  c #24E111",
"m  c #28D417",
"M  c #21ED0C",
"N  c #27D915",
"B  c #1EFA07",
"V  c #1FF30A",
"C  c #24E310",
"Z  c #2DC41D",
"A  c #21EC0D",
"S  c #26DD13",
"D  c #1DFB07",
"F  c #22EA0E",
"G  c #2DC31D",
"H  c #25DF12",
"J  c #2EBD20",
"K  c #2FBC20",
"L  c #1DFA07",
"P  c #2EBE1F",
"I  c #28D416",
"U  c #2ACD19",
"Y  c #2ACD1A",
"T  c #22E80E",
"R  c #27D914",
"E  c #20F10B",
"W  c #2BCA1B",
"Q  c #22EC0D",
"!  c #23E50F",
"~  c #29D217",
"^  c #29D218",
"/  c #22EA0D",
"(  c #27D716",
")  c #20EF0B",
"_  c #26DB14",
"`  c #2ACB1A",
"'  c #27D616",
"]  c #29CF18",
"[  c #27D715",
"{  c #2FBD20",
"}  c #2EBE20",
"|  c #27DA14",
" . c #2CC41D",
".. c #20F20B",
"X. c #25DD13",
"o. c white",
/* pixels */
"  . X o O + @ X X o O # $ % & * o o o X = - X ; & : ; > , $ % : ",
"  . X o O < $ 1 O o X * > 2 3 ; X o o X 4 2 5 6 7 8 8 9 , 0 . * ",
"  . X * X q w e r * * X * > t : X o X O 4 y 9   u i p p a % * X ",
", s . X * r u   1 O o * X ; d w : X < s $ @ + f g O X O h % o X ",
"> 7 j X * X i 4 k l * o * X * z + x $ 6 c : u 7 v O o X h $ < ; ",
"; 9 x j X * O p b n l * * X : m y , 1 ; O O M = N B * X V 6 9 : ",
"* C Z A O * * l e Z - X X V m $ S   < q O * B N 9 a O * X j 8 : ",
"X X 8 < i X o X A x + D q < $ @ ; 1 2 < i X X F 3 m O o X p 8 : ",
"o * 1 G z O o * l n 0 6 e k S X X O H $ d r * B S m O * O j 9 & ",
"X O > t z O o * l - J K s L B X o X O S S . X l e m O X q H b ; ",
"* > Z P c O * O . I 7 U t C z X O X * l Y C L j + m O X F 8 X O ",
": 9 3 2 c O X . < 2 6 p = s   5 T * O O = R F w G H O O h 0 ; # ",
": 8 j u n & B N 2 @ r X O E Y W 2 > h Q u   9 s 1 r X : C + ! $ ",
": 8 p O = S E m k r * o * X X V 3 $ , y v 4 b : O V p C < p 2 % ",
"p t T X m 2 $ 2 S O o o o o o * & 9 7 t t   y b & @ P w O p t V ",
"9 $ 7 A X ~ J e X X o o o o X * E W A ; * ^ $ 9 t 9 2 = ; p s : ",
". t / * O < J e X X o o o X * E W M * X O + S : g & v $ x : V * ",
": 8 p X X ~ y 2 S O X o X X . 0 Z E X o O + H O X X * C $ = ; * ",
": 8 p O f $ S ( $ e O * X ) 0 Z h * X o O + H O o * X ; a $ = ; ",
"; 8 p O U _ & g f $ _ l p + F A * X * o O + H O o o X h % y , ` ",
"U   j B U C O O q ' 2 w s 0 X X X * o * l + H O o * O d 9 T C $ ",
"- 7 ] ~ H E X * O E [ { y % X X o o o X S   1 O * O h ( / O E   ",
"* t y } # O * o * O q N y 2 | X O X * O U m j X r h Y  .H r .   ",
": t , , c O o o o X p ~ 7 k , [ _ ; X l Y a B B h U J y 2 H ..  ",
"& 7 , P z O o o * r a Z n & b f , k & C R j # S 3 0 ^ t m 2 k , ",
"; R Z + p X o * O . < = l X r * k I H 7 F A W 0 u > 5 = V f I f ",
"X X % A O * * O . m 2 S X o * X O r 0 } _ ` % # L r F f # l O O ",
"o * % / X o X . < 2 X.r * o * X X # 9 3 Z } k # j O l d 9 / * o ",
"X * % / X o O N 2 @ r * o * X * F Z % ) w t 3   < A . A 0 0 * o ",
"* p t / X o O k k r * * X X * h Z % . O = a B 6 8 Z x q h % * o ",
"p t 7 A X o O k k O o X ; E A % % . X X = H ; * X C  .< > % * o ",
"  2 A X X o O k k O o X Q 2 0 q : * X X 4 y - O X * ; z $ % * o "
};
