/* XPM */
static char *_6e23194053e4e92b72d76ed33021673x0F1lEy1bHz9o3wo[] = {
/* columns rows colors chars-per-pixel */
"32 32 135 2 ",
"   c #569717",
".  c #56961C",
"X  c #5D9E1D",
"o  c #5D9D23",
"O  c #5E9D2B",
"+  c #619F24",
"@  c #609F2D",
"#  c #63A325",
"$  c #67A826",
"%  c #69AB27",
"&  c #65A52B",
"*  c #69A72B",
"=  c #67A829",
"-  c #6AAA2E",
";  c #6FB02E",
":  c #65A433",
">  c #68A734",
",  c #6CAC32",
"<  c #6EAD3A",
"1  c #70AE33",
"2  c #71AE39",
"3  c #72B236",
"4  c #76B834",
"5  c #78BA36",
"6  c #75B53A",
"7  c #79B73C",
"8  c #77B83A",
"9  c #7ABA3D",
"0  c #7EC03C",
"q  c #76B542",
"w  c #78B745",
"e  c #7DBD43",
"r  c #7DBD42",
"t  c #7FBD42",
"y  c #7EBE43",
"u  c #7EBD41",
"i  c #79B845",
"p  c #7AB946",
"a  c #7FBC45",
"s  c #7EBE44",
"d  c #7FBF44",
"f  c #7FBF45",
"g  c #7CBB42",
"h  c #7DBC4B",
"j  c #7FC042",
"k  c #7FC041",
"l  c #80C23F",
"z  c #80BE41",
"x  c #80BE43",
"c  c #80BD44",
"v  c #81BF44",
"b  c #80BD46",
"n  c #81BE47",
"m  c #82BF46",
"M  c #81BF44",
"N  c #82BF48",
"B  c #80C141",
"V  c #80C143",
"C  c #82C043",
"Z  c #81C242",
"A  c #80C045",
"S  c #82C045",
"D  c #81C244",
"F  c #82C345",
"G  c #80C046",
"H  c #81C146",
"J  c #81C147",
"K  c #83C146",
"L  c #82C247",
"P  c #84C245",
"I  c #84C247",
"U  c #83C444",
"Y  c #83C446",
"T  c #86C447",
"R  c #83C344",
"E  c #87C945",
"W  c #89CA47",
"Q  c #82C248",
"!  c #83C348",
"~  c #83C349",
"^  c #83C04B",
"/  c #84C148",
"(  c #85C348",
")  c #87C548",
"_  c #86C449",
"`  c #85C648",
"'  c #84C44A",
"]  c #85C54A",
"[  c #87C54A",
"{  c #86C64B",
"}  c #87C44D",
"|  c #87C74C",
" . c #87C74D",
".. c #84C44A",
"X. c #88C64B",
"o. c #89C74C",
"O. c #89C64F",
"+. c #89C74C",
"@. c #87C848",
"#. c #87C849",
"$. c #8ACB4B",
"%. c #88C84D",
"&. c #8AC84D",
"*. c #88C84E",
"=. c #89C94E",
"-. c #89C94F",
";. c #8BC94E",
":. c #8ACA4F",
">. c #8BCC4E",
",. c #8CCD4F",
"<. c #8ECC4F",
"1. c #8ACA4C",
"2. c #8FD04E",
"3. c #91D34F",
"4. c #88C754",
"5. c #8ACA50",
"6. c #8BCB50",
"7. c #8BCB51",
"8. c #8DCB50",
"9. c #8ECC51",
"0. c #8CCC52",
"q. c #8DCD52",
"w. c #8DCD53",
"e. c #8FCD52",
"r. c #8ECE53",
"t. c #8BCA57",
"y. c #8CC954",
"u. c #8ECE54",
"i. c #8FCF54",
"p. c #8ECD53",
"a. c #90CE53",
"s. c #91CF54",
"d. c #92D258",
"f. c #91D05D",
"g. c #9AD85D",
/* pixels */
"- X = j # * = + # = 3 6 7 # o , - 7 S ;.P 9 6 u 7 3 - # - - o # ",
"  - 6 j g , , c g 7 * = , j 7 . 9 7 z S 7 1 1 - 6 3 - u S g d # ",
"7 # - q.* d &.c 5.Q , = 7 7 , 3 ' P u ' # 3 6 6 9 + 7 Q | 5.3 , ",
"Y u 7 3 = * 7 | ' g 7 7 u g 3 3 S X.c X.o , * - - 6 * - 6 d ' - ",
"i.d 3 # 6 3 6 7 Q q.- 7 , 7 Q Q c u z 9 7 7 7 3 O.7 , * - , * - ",
"S u 3 6 u S d S u 7 S 3 S 7 3 &.( ' X.' q.P g 9 g 3 7 3 * , 3 , ",
"6 3 S S S u | S 6 | , &.7 d Q 3 - 7 c s.8.c 6 g c 6 7 ' 7 # - , ",
"& 3 c q.3 7 6 3 , u u | &.S 6 3 u g ' ' S , 3 z ( z 7 7 Q 7 * - ",
"6 7 - | &.i.&.S S u 7 7 6 6 c ( C = j S 4 7 Q 6 g u g 7 S * , 7 ",
"* . 7 u , - , | 1 7 7 7 u S ( X.- 4 8 3 Y Q ' S 7 6 , - , - d &.",
"5.Q d * u S 7 * = - 6 9 7 7 z ' C 4 C u u u 7 3 6 1 - , 7 d 5.g ",
", Q , # * o * * 7 , - - X = 3 3 4 $.- ; o , , * = , 7 d u &.d.u ",
"o o * , * * * , 7 9 u C P <.9 1 3 - j = 3 - S 7 6 7 7 7 6 S i.u ",
", , g g N O.7 , 3 7 3 7 P P 1 T #.Y S <.S = 3 7 O.S 7 7 7 7 7 * ",
"1 g g c O.c d N c ( c S c u 1 a.9 - S j - g &.u 7 9 7 7 7 - 3 3 ",
", , 6 g > 2 Q y.7 7 u 7 - ' S ( # 3 j 9 S 5.&.' u 7 - # , # 7 5.",
"i q t.O 6 f.i < 3 , # , = ' >.Y ( c g g 7 7 7 g - , , - 6 z X.z ",
": w > > & : > O 3 3 , = + 3 # 7 1 S 1 3 7 & 6 * # - - 6 X.q.g.( ",
"o @ : & & o & & g 6 &.g u &.7 = , 1 u 1 1 6 ' P g u u 7 g c O.7 ",
", # * 3 o # 3 , o , 3 6 7 , o 3 + 7 S u ' u z g 6 , - = # = 3 = ",
". - Q d Q , 3 d 6 u o , , | - , c u c S , , , + - , * S &.9 ( # ",
"7 # - Y = u | &.Q 3 - 3 3 u , 3 S ;.7 g , , 7 c 7 * 7 g X.q.c 7 ",
"4 9 ; 4 # # T C 7 Q 7 # 6 g 7 j g 3 &.S = , o & = 3 = 7 P 6 ( , ",
"5 W 3 X 4 E 4 7 g &., 6 , u ' 7 P C 9 z 9 9 C 7 O.g , + * 1 3 * ",
"U % Z 5 0 $.C 4 8 4 C T 7 T T 9 C C T C $.l 5 0 4 9 # - , , > > ",
"# $ T ; 9 Y Y j - 4 ; T Y C T - - 9 9 2.$.U 0 0 4 U 5 S u , @ , ",
"- j C $.Y 7 7 = - 3 j 9 &.>.= Y 9 T 7 T 7 3 ; 9 W $.7 8 7 3 3 , ",
", = 6 | S &.' S #.9 7 4 9 T 3 Y C 3 ' S , S | 7 9 S 6 7 S = - u ",
"* , d g g , | d # S 8 7 S j u Q 3 , 6 7 S &.' | S 3 - - , - C #.",
"w i ^ > h 4.7 > 6 # # = - S S d ' Q 3 d g 7 i g # 7 3 - 7 C $.l ",
": h > O O > & : 6 - - - - 6 - 3 , | 7 , > * 3 & < > , u ' <.3.4 ",
": : O @ : @ O > 6 9 &.7 7 i.7 , 3 - 7 6 , & 4.^ i i i u 8 0 $.0 "
};
