/* XPM */
static char *xpm_[] = {
/* columns rows colors chars-per-pixel */
"32 32 214 2 ",
"   c #020C01",
".  c #0C0D06",
"X  c #0D0E0C",
"o  c #070D09",
"O  c #110E0D",
"+  c #031200",
"@  c #0C1404",
"#  c #031C00",
"$  c #0B1C01",
"%  c #0E140B",
"&  c #0E1B0C",
"*  c #121407",
"=  c #121B04",
"-  c #12130C",
";  c #131A0C",
":  c #0E0C12",
">  c #130E16",
",  c #180E15",
"<  c #150F19",
"1  c #0E1312",
"2  c #0F121A",
"3  c #0F1911",
"4  c #131213",
"5  c #151A12",
"6  c #181816",
"7  c #13121A",
"8  c #18141E",
"9  c #1C1A1B",
"0  c #171715",
"q  c #022300",
"w  c #0A2300",
"e  c #042800",
"r  c #14210D",
"t  c #142214",
"y  c #4A741C",
"u  c #446F20",
"i  c #4A6D2B",
"p  c #4C7728",
"a  c #4D7A24",
"s  c #4E6A30",
"d  c #53793D",
"f  c #547634",
"g  c #526C43",
"h  c #54654D",
"j  c #546D4A",
"k  c #5A6B4C",
"l  c #546543",
"z  c #567142",
"x  c #597441",
"c  c #5C7148",
"v  c #5B6358",
"b  c #606949",
"n  c #636A5A",
"m  c #607357",
"M  c #5C9818",
"N  c #639C1B",
"B  c #61A41C",
"V  c #6AAB1B",
"C  c #528C25",
"Z  c #5D9B22",
"A  c #5E9D2A",
"S  c #579623",
"D  c #5C9632",
"F  c #639C2C",
"G  c #659F24",
"H  c #649C33",
"J  c #689C32",
"K  c #6C963E",
"L  c #679B3B",
"P  c #71983F",
"I  c #739D37",
"U  c #5EA626",
"Y  c #62A225",
"T  c #69A625",
"R  c #64A32C",
"E  c #6AA32D",
"W  c #65AA2D",
"Q  c #6CAA2C",
"!  c #67AB22",
"~  c #70AF2D",
"^  c #70A62C",
"/  c #6DB22D",
"(  c #71B22E",
")  c #79B82C",
"_  c #65A334",
"`  c #6AA434",
"'  c #65A933",
"]  c #6BAB33",
"[  c #67A238",
"{  c #6BA33B",
"}  c #66AB38",
"|  c #6DAA3A",
" . c #72AE34",
".. c #73AE3B",
"X. c #7CAC3E",
"o. c #6EB335",
"O. c #6DB23D",
"+. c #74B334",
"@. c #7AB634",
"#. c #7CB837",
"$. c #73B33C",
"%. c #7AB23B",
"&. c #75BA3D",
"*. c #7CBC3C",
"=. c #75B930",
"-. c #7EC028",
";. c #79C13A",
":. c #6D9D42",
">. c #689645",
",. c #729448",
"<. c #759C4D",
"1. c #7C9D4C",
"2. c #709E44",
"3. c #728A56",
"4. c #6E9650",
"5. c #77935D",
"6. c #78975E",
"7. c #7D9B5C",
"8. c #769B55",
"9. c #6DAA42",
"0. c #71A443",
"q. c #75AD44",
"w. c #7AAD45",
"e. c #73A34A",
"r. c #7CAB4D",
"t. c #78A648",
"y. c #6AB040",
"u. c #75B442",
"i. c #7CB545",
"p. c #76B941",
"a. c #7CBB43",
"s. c #79B24B",
"d. c #7DBB4C",
"f. c #76B04C",
"g. c #7BA353",
"h. c #7CAB54",
"j. c #76A15B",
"k. c #7DA35B",
"l. c #7EAB5C",
"z. c #7CB153",
"x. c #7A8A63",
"c. c #79896E",
"v. c #7F9760",
"b. c #7E9C64",
"n. c #769460",
"m. c #7C8572",
"M. c #7D9273",
"N. c #7DC244",
"B. c #7EC04D",
"V. c #83BC3C",
"C. c #85C43E",
"Z. c #85C732",
"A. c #809D5A",
"S. c #81AD4C",
"D. c #83AE43",
"F. c #81B543",
"G. c #81BC43",
"H. c #83B54C",
"J. c #82BB4B",
"K. c #88BB49",
"L. c #83AA58",
"P. c #82B353",
"I. c #85BC54",
"U. c #8BBC53",
"Y. c #83B55A",
"T. c #8AB55B",
"R. c #8BBB5B",
"E. c #85B85B",
"W. c #95BD5D",
"Q. c #82886C",
"!. c #829D64",
"~. c #859C6A",
"^. c #8B9C6A",
"/. c #859777",
"(. c #8EAE62",
"). c #85A26D",
"_. c #8AA56A",
"`. c #85A868",
"'. c #8BAC6E",
"]. c #83A561",
"[. c #88B067",
"{. c #8CB36A",
"}. c #8FBF69",
"|. c #8EB866",
" X c #92BF64",
".X c #92B669",
"XX c #97BA65",
"oX c #8EA878",
"OX c #8BAD70",
"+X c #9BB379",
"@X c #82C144",
"#X c #8BC744",
"$X c #84C14A",
"%X c #87CF4F",
"&X c #8BCB4C",
"*X c #88C649",
"=X c #94D14F",
"-X c #84C052",
";X c #8AC354",
":X c #8CCB52",
">X c #8CCC5A",
",X c #8BC459",
"<X c #92C254",
"1X c #93CD56",
"2X c #92CB5B",
"3X c #96C55D",
"4X c #91D252",
"5X c #92D35D",
"6X c #8BCC60",
"7X c #94C661",
"8X c #95CB66",
"9X c #A0D86B",
"0X c #A5C971",
"qX c #9AAC84",
/* pixels */
"Q N T G.U ] _ A R Y $.$.=.B D 9.| +.#.4Xa.&.p.a.#.~ T G  .E M Y ",
"M Q #.;.a.] _ $Xa.$.R E / @Xd.C i.G.C.;.+.$.| '  .#.T G.J.i.@XY ",
"#.Y ^ 1XW $X>Xa.:XG. .J q.s.| q.;XG.#.C.T ] u.i.G.M F.V.1X&Xo.( ",
"$XG.*.o.R W $.:XI.H.X.S.a e.d...U.2XG.#XM ..H { ` i.E  .%.N.N.Q ",
"1XJ.o.R &.o.=.p.7X|.I S.q b.I.K.E.:.U.V.w.w.P.e.}.z.0.F F ] ] ' ",
"G.J.$.O.a.N.V.I.g.7.W.1.q q t.8Xf k.W.U.3XT.p j.[.q e.P.{ | O.o.",
"%...-Xd.N.*.#XI.5.$ w +XM.# [.<.q '.(.0XXXT.e '.OXf <.T.w.` ] ] ",
"E X.d.>X$.*.%.r.g $ b /./.$ ).5.q $ !.A.A.w $ oXz x `.g.q.i.Y W ",
"i.` ..;X$X>Xw..X@ 3 k * v 3 j q @ % n $ $ @ k /.$ M.# q a { | $.",
"H C i.-Xq.0.g.x @ X - ; 1   t + 1 o 4 %   ; - @ @ t # n.l.L $X:X",
"8XI.J.J S..X5.k 6 4 O 4 : 1 5 4 6 7 : 9 O 0 * @ n m.x.~.L.P.1X+.",
"` u.J J q s k + % - 4 > 2 8 1 : 1 4 > < 4 . - 0 . 5 + q y 2X1X;.",
"A F { r.# $ . 0 4 4 - 4 7 7 O 0 4 7 1 7 > 7 > > 4 - k b.Y.H.>Xa.",
"' | |.7.qX@ 0 O 4 O 0 . 7 X O 0 4 4 7 : > 4 > 8 7 . w # y J.p.} ",
"Q J.y q = . . 9 > 4 ; - - 4 4 - * @ 0 % 0 4 7 : 6 & w <.H._ u.y.",
"/ ' l.b.c.; 0 O 7 4 4 % 0 . 0 O * * . 0 . % 4 7 : % x.,.t.A u.6X",
";.} 8X>.).m & 4 4 > > 0 4 > 4 * % % 4 - * - 4 4 > * = w y I.;XJ.",
"U a.{ e.4.# & o - - , > > 4 - % - 1 4 - % - 1 4 > - Q.^.|.t.9X-X",
"S U ' J >.w + t - * 4 , 4 - - 4 4 4 - - 4 1 7 7 , > = f T.J.;X..",
"} { L r.,.3.+ % * * - > 7 4 1 4 7 , - - < 7 7 2 8 O = + K J i.E ",
"D >.j.z q h % 1 * * 4 > 1 > 1 4 - > , , 4 < 2 2 7 % @ ~.g.I.a.T ",
"r.L j.C # + 5 % * - 4 7 < 7 7 % - 4 , , > 7 2 2 : 0 w + a ;X$X+.",
") C.` w.:.5./.; % - < 7 2 > > 4 1 7 > , * * 1 2 : 5 3.<.7Xd.a. .",
"V.Z.V.N D..X~.h @ % 1 7 7 7 7 4 % 4 - - * = @ % & + A.:.F  ...` ",
"Z.V C.%.R.k.g $ $   = ; - 4 O % ; @ . - = = $ $ l w i e. ./ ` q.",
"B V $Xu.P.L.q z 7.!.$   = @ ; ; l k ; ; + ~.A.(.!.q q E.&.( F _ ",
"! N.d.>X,X{ h.>.1.A.!.c $ /.x.# b.!.# & j _.X.D.W.y L.z.d.+.+.^ ",
"o.' O.$Xa.2XU.R.<XH.<.w # +X_.# T.g.q g # g.W.V.F.3Xe.f.B.W T #.",
"[ } d.N.a.E ,XJ.E #XF.S.E..X].l.h.e.8.OX.Xr.H.:X;X| ' o.o.o.*.#X",
"s.d.$XY a.5X| | =.M E E { { h.0.B.I.e.:.P.u.d.d.F %.&.W o.B.&XC.",
"[ d._ A R ] A ' =.=.Y | | q.{ u.} >X] ....{ 9._ ] Q W N.%X&X=X@.",
"H _ H R F Z ' R / ;.:Xp.p.5X$.W O.W =.+.| D >Xd.&.*.&.N.o.#XC.V."
};
