/* XPM */
static char *_9f96120ce2e456ccbf3647e7638872f0FLfOStgb4ShyFbm[] = {
/* columns rows colors chars-per-pixel */
"32 32 229 2 ",
"   c #050E00",
".  c #0C0B00",
"X  c #190700",
"o  c #130C00",
"O  c #1B0B00",
"+  c #140600",
"@  c #021200",
"#  c #091200",
"$  c #121300",
"%  c #250200",
"&  c #220900",
"*  c #573807",
"=  c #623C15",
"-  c #3B4303",
";  c #385B01",
":  c #484106",
">  c #574708",
",  c #415609",
"<  c #5B4A1A",
"1  c #565514",
"2  c #6A5200",
"3  c #755000",
"4  c #624412",
"5  c #755814",
"6  c #426008",
"7  c #567C15",
"8  c #399B0A",
"9  c #38A90E",
"0  c #3AA514",
"q  c #2FA60C",
"w  c #44980C",
"e  c #479D16",
"r  c #56941C",
"t  c #4C8817",
"y  c #73841C",
"u  c #659B1F",
"i  c #40A20D",
"p  c #44A219",
"a  c #5FA41C",
"s  c #5FA415",
"d  c #61A11A",
"f  c #6BA91B",
"g  c #5C9424",
"h  c #5B9C25",
"j  c #5C9E2A",
"k  c #559528",
"l  c #638024",
"z  c #639D25",
"x  c #629B2A",
"c  c #6C9D2C",
"v  c #699729",
"b  c #6B9C33",
"n  c #669A38",
"m  c #7A9A39",
"M  c #73972B",
"N  c #5DA224",
"B  c #5CA629",
"V  c #5CB32F",
"C  c #63A425",
"Z  c #6BA523",
"A  c #66AA24",
"S  c #6AA924",
"D  c #65A42C",
"F  c #6CA52C",
"G  c #64AA2C",
"H  c #6AAB2D",
"J  c #74AC2C",
"K  c #6DB42B",
"L  c #69B727",
"P  c #79B32D",
"I  c #75B52A",
"U  c #65A232",
"Y  c #6DA533",
"T  c #65AB32",
"R  c #6CAD33",
"E  c #6EA43C",
"W  c #6DAB3B",
"Q  c #66AA39",
"!  c #72A334",
"~  c #73AC34",
"^  c #72AD38",
"/  c #7BAC3D",
"(  c #7AA639",
")  c #6DB333",
"_  c #6DB43B",
"`  c #6EB939",
"'  c #74B334",
"]  c #7DB535",
"[  c #75B933",
"{  c #7BBA35",
"}  c #74B33B",
"|  c #7CB43D",
" . c #75BA3D",
".. c #7BBA3C",
"X. c #7DC23C",
"o. c #79C137",
"O. c #6B9C40",
"+. c #799B49",
"@. c #799E51",
"#. c #74AC43",
"$. c #7CAD43",
"%. c #79A744",
"&. c #6DB842",
"*. c #76B444",
"=. c #7AB544",
"-. c #74BB43",
";. c #7CBC43",
":. c #73B448",
">. c #7BBD49",
",. c #77B94B",
"<. c #71BD50",
"1. c #7BA158",
"2. c #7DC244",
"3. c #7EC34B",
"4. c #79C346",
"5. c #7AC350",
"6. c #8B9B30",
"7. c #87893E",
"8. c #8BB32F",
"9. c #85A73D",
"0. c #91A939",
"q. c #83BC3D",
"w. c #86B93A",
"e. c #99B53A",
"r. c #EDB704",
"t. c #F4B704",
"y. c #F5BD02",
"u. c #FDBC02",
"i. c #F4BA0C",
"p. c #FFBE0C",
"a. c #F6B60E",
"s. c #EEAF12",
"d. c #E8B517",
"f. c #FDBD13",
"g. c #F3BD1A",
"h. c #FCBE1A",
"j. c #F4BB13",
"k. c #DAAF2F",
"l. c #CEB32E",
"z. c #DDBA28",
"x. c #DCAF34",
"c. c #D8B839",
"v. c #CBBE34",
"b. c #EBB520",
"n. c #E5B822",
"m. c #FDBC21",
"M. c #F6BD28",
"N. c #E9BE36",
"B. c #F1BB37",
"V. c #85C33B",
"C. c #87C839",
"Z. c #FDC204",
"A. c #F6C30F",
"S. c #FDC20A",
"D. c #F9C70B",
"F. c #F5C413",
"G. c #FCC112",
"H. c #FFC119",
"J. c #FBC71D",
"K. c #DAC427",
"L. c #DAC43B",
"P. c #ECC32C",
"I. c #E7C72B",
"U. c #F3C222",
"Y. c #FCC222",
"T. c #FFCB26",
"R. c #FAC32A",
"E. c #F7C72D",
"W. c #EAC534",
"Q. c #E8C437",
"!. c #F6C63A",
"~. c #E7D12E",
"^. c #879B4A",
"/. c #849350",
"(. c #A39C44",
"). c #84AC49",
"_. c #89A949",
"`. c #98AF43",
"'. c #82BC43",
"]. c #85B54C",
"[. c #83BC4A",
"{. c #88BD4B",
"}. c #8BB545",
"|. c #9AB849",
" X c #8BAB53",
".X c #94A957",
"XX c #93AA58",
"oX c #88B855",
"OX c #96B855",
"+X c #A7BA4A",
"@X c #A5BC58",
"#X c #9AB363",
"$X c #88AF62",
"%X c #D8BA4C",
"&X c #D2B655",
"*X c #E6BC41",
"=X c #F2BF46",
"-X c #82C344",
";X c #8BC543",
":X c #84C44B",
">X c #8BC34B",
",X c #84CA4B",
"<X c #8CCA4D",
"1X c #89CB47",
"2X c #93C743",
"3X c #8BD34A",
"4X c #84C351",
"5X c #85CC51",
"6X c #8BCC53",
"7X c #8BC956",
"8X c #91CD57",
"9X c #94C657",
"0X c #8CD154",
"qX c #85D250",
"wX c #94D253",
"eX c #8FC660",
"rX c #9CC266",
"tX c #9CDE63",
"yX c #DDC648",
"uX c #DFC557",
"iX c #E8C34C",
"pX c #EAC742",
"aX c #FAC742",
"sX c #E8C957",
"dX c #F5CB53",
"fX c #F3C55C",
"gX c #D6CB69",
"hX c #EAC764",
"jX c #F1CF65",
/* pixels */
"W h C X.z F G j D D / | ' C k W H ..{.9X{.>.} 2.] I S a G G h D ",
"r R } 2.'.~ G 2.-.=.! c } [.>.r ....{.{.=.~ R C ' P S X.3.-.-Xz ",
"..C H 8XC -X5X .6X'.~ v E $.c } >X:X[.-XN ' { ' '.z ..:X5X6X' J ",
"V.q.| ^ D G  .,X-X..| $.; 6 M ( {.,X2.,Xe B a K F ..D T _ 2.;XZ ",
"3XV.~ z  ._ } ..-XwXD %., - 1 ^.}.X.L V p 8 w A 1X} R G T R S Z ",
"X.X.' } >.3.'.;X] ..6X%./.< < > }.K i 9 9 0 w [ ..' -. .D H ' ~ ",
"} ' -X2.3.;.;Xw.q...T eX^.: = * l N 8 9 q 0 e _ 2.} *.6X{ d G R ",
"U } ;.0X_ ..P P S -X4XoX#X> * 4 , t p 8 0 p V 3.4X>.*.=.;X{ C G ",
"} =.Q 3.0X<X;X-X'.[.oX$XXX7.* > - 7 g k k #.>X| [.=.[.;.'.F H ` ",
"Y g >.;.R H ~ >X9.OX@     (.5 > : y y @ @ @ +X|.}./ H F ^ F 2.qX",
">X>X .G [.].]._.@ . sXsXjX% % 3 2 X O L.~.K.O . 0.9.Y ~ } ;.0X) ",
"~ -X) N ! v _.  gXsX!.!.B.=X=Xx.c.N.!.g.y.D.W.yX  0.w.'. .6X0X:X",
"u r G } c 9.  gXpXE.T.a.Y.h.g.Y.U.g.G.Z.Z.u.f.P.yX# 8.] ;.>.4X;.",
"J ~ } =.oX@X+ sXE.J.f.Y.m.Y.G.S.S.S.u.u.u.u.S.g.Q.o e.w.W :.[.F ",
"~ | ;.{.rX  sXaXH.a.N.dXfX=XT.y.S.t.S.p.G.p.u.G.U.yX@ ).,._ ' ' ",
"~ F =.$.@.  iXR.h.Y.dXhXhXdXg.S.Z.u.S.p.f.f.S.D.F.z.$ +.#.B } <X",
";.^ 8Xn $X  Q.Y.M.aXjXhXpXU.H.p.p.p.p.p.f.p.S.D.j.I.. ^.$.>.4X>.",
"C ;.U O.1.  W.j.M.aXfXiXP.F.S.p.p.p.S.S.p.p.Z.D.F.z.. XXoX8XtX:X",
"z F U E @.  I.S.H.R.!.!.U.G.S.Z.S.D.Z.Z.S.S.Z.y.r.z.o  X{.'.V.P ",
"c z U *.n @ W.H.G.G.J.U.h.G.Z.Z.D.D.Z.Z.Z.Z.y.i.d.c.$ m x H I f ",
"g W 5.>.>X0.X !.p.Z.D.A.G.G.Z.Z.S.Z.Z.Z.Z.Z.y.d.*XX 6.}.6X_ -XA ",
"*.j T qXd w.$ %XH.Z.Z.D.G.G.Z.Z.S.Z.Z.Z.Z.u.t.n.&X. |.] :X5X2.) ",
"} X.L L a F @Xo U.p.f.f.G.S.S.Z.p.S.Z.Z.p.j.a.z.. .XM w.>X..2.T ",
"o.C.L s ' <X).# Q.m.h.f.f.S.Z.S.p.S.Z.Z.p.j.b.c.@ ].( u F ~ ) G ",
"C.f ;X] -X<X'.e.& B.m.p.u.S.u.Z.Z.Z.u.S.t.d.x.+ }.;.Z J ! / R G ",
"d S >XF '.;X-X2X. iXM.H.u.Z.A.A.G.i.p.r.r.n.%X  | 2.P ;X{.E N G ",
"Y :X:X<X>X.. .Z 0.o *XP.F.r.I.z.n.b.s.g.d.l.o OX6X,X[ [ }  .&.T ",
"#.U _ ,X[.6X,X-X9X|.o yXI.K.v.O O c.k.x.c.o @X].=.2.[ [ -XC G 2.",
"D T 4.-.=.D ,X2.N {.`.    # @ +X0.  o . # @X9X7X:X} S A H S V.C.",
"..;.3.T [.7X| H ` B v 9._. XOX}.OXrX X#XOX$.;.;.x =.} G ..-X2XV.",
"D >.Q j x E c Y _ T ~ c Q ,.b / Y 4X:.n Y D } C ~ Y Q ,.5X6XwX' ",
"Y D j U b b v !  .4.<X;.-.5X=.Y } T &.&.) N ,X2.| '.,.<.-.;.6X-X"
};
