/* XPM */
static char *c16948fc617449b3cc44a5a7ae9585dcgxlnOCYyq5QMvRfM[] = {
/* columns rows colors chars-per-pixel */
"32 32 235 2 ",
"   c #020202",
".  c #000B00",
"X  c #050909",
"o  c #031601",
"O  c #362E34",
"+  c #3B3737",
"@  c #34302D",
"#  c #1E5A10",
"$  c #176516",
"%  c #13610D",
"&  c #3B462C",
"*  c #257B3A",
"=  c #59711D",
"-  c #74781F",
";  c #414838",
":  c #7A6121",
">  c #337852",
",  c #414D41",
"<  c #687C66",
"1  c #6B6E69",
"2  c #A3552E",
"3  c #8C6B29",
"4  c #9F6233",
"5  c #B6613C",
"6  c #985028",
"7  c #039F1A",
"8  c #19BD06",
"9  c #25B717",
"0  c #32BC18",
"q  c #34B30F",
"w  c #138827",
"e  c #20813A",
"r  c #29BE24",
"t  c #37BD24",
"y  c #38B736",
"u  c #30AC2E",
"i  c #599E1F",
"p  c #668116",
"a  c #42B918",
"s  c #66A61B",
"d  c #5D9B25",
"f  c #5D9336",
"g  c #629E28",
"h  c #639935",
"j  c #5CA526",
"k  c #5CB52D",
"l  c #54B230",
"z  c #65A325",
"x  c #6AA525",
"c  c #64A42B",
"v  c #6BA52C",
"b  c #65AA2B",
"n  c #6BAC2D",
"m  c #67A826",
"M  c #72AD29",
"N  c #6DB524",
"B  c #77B22D",
"V  c #6BAB33",
"C  c #6AAB3A",
"Z  c #67A636",
"A  c #75AD33",
"S  c #71AC3B",
"D  c #7BAF35",
"F  c #6CB334",
"G  c #69B938",
"H  c #75B534",
"J  c #7BB434",
"K  c #7BBA33",
"L  c #74B43C",
"P  c #7BB53C",
"I  c #74B93C",
"U  c #7ABA3D",
"Y  c #74B837",
"T  c #1CCE02",
"R  c #1CCC0B",
"E  c #17CB08",
"W  c #1BD303",
"Q  c #1CDA05",
"!  c #1CD30B",
"~  c #1BDA0B",
"^  c #16D709",
"/  c #18CA15",
"(  c #19D613",
")  c #0FCF00",
"_  c #22CD0D",
"`  c #28C50C",
"'  c #23D30C",
"]  c #23DB0D",
"[  c #26D709",
"{  c #24C511",
"}  c #29CA18",
"|  c #34C415",
" . c #32C31D",
".. c #30C91D",
"X. c #3ECE1F",
"o. c #24DB13",
"O. c #2BDC15",
"+. c #2CD21C",
"@. c #2AD617",
"#. c #34DB1C",
"$. c #31D51D",
"%. c #1DE708",
"&. c #1DF504",
"*. c #1CF30C",
"=. c #1DFA0B",
"-. c #1FF807",
";. c #1FE915",
":. c #1DF311",
">. c #1AFA14",
",. c #23ED0D",
"<. c #25E60C",
"1. c #23F307",
"2. c #23F40C",
"3. c #23F90C",
"4. c #27F70A",
"5. c #23E412",
"6. c #2CE514",
"7. c #25EC13",
"8. c #2BED13",
"9. c #2BE31C",
"0. c #26EC1B",
"q. c #2CEC1A",
"w. c #27E418",
"e. c #32E41C",
"r. c #32EB1C",
"t. c #35E718",
"y. c #23F114",
"u. c #2BF213",
"i. c #23F812",
"p. c #2BF41C",
"a. c #23F31B",
"s. c #33F61D",
"d. c #2DC320",
"f. c #2AC924",
"g. c #3AC627",
"h. c #26D722",
"j. c #34DB26",
"k. c #2AE726",
"l. c #33EB22",
"z. c #37E725",
"x. c #37F624",
"c. c #37E235",
"v. c #2BF128",
"b. c #45C31C",
"n. c #54C72C",
"m. c #58C636",
"M. c #4AC931",
"N. c #79C33A",
"B. c #6FC337",
"V. c #59895A",
"C. c #679551",
"Z. c #48B843",
"A. c #5CBE52",
"S. c #75AA48",
"D. c #7BB544",
"F. c #75BC43",
"G. c #7BBC43",
"H. c #7BBB4A",
"J. c #77B748",
"K. c #73A755",
"L. c #7DB951",
"P. c #69B74D",
"I. c #749560",
"U. c #52C84A",
"Y. c #56C950",
"T. c #6CC848",
"R. c #7BC44B",
"E. c #79C545",
"W. c #76C655",
"Q. c #70DA46",
"!. c #6FE258",
"~. c #5DC860",
"^. c #77D270",
"/. c #7CEB69",
"(. c #81BD3C",
"). c #87BB38",
"_. c #83C33B",
"`. c #8D9A42",
"'. c #B29D53",
"]. c #87AD45",
"[. c #82BC43",
"{. c #83BD4A",
"}. c #85B947",
"|. c #95AA58",
" X c #91B44A",
".X c #A2B752",
"XX c #8AB865",
"oX c #85C445",
"OX c #84C54C",
"+X c #85CB4D",
"@X c #8BCC4C",
"#X c #8BC747",
"$X c #8CD14D",
"%X c #83C352",
"&X c #8BCB53",
"*X c #8AC558",
"=X c #92C956",
"-X c #94D052",
";X c #87C46A",
":X c #B0C665",
">X c #85EE6E",
",X c #6AA483",
"<X c #71A58E",
"1X c #739587",
"2X c #7EC485",
"3X c #B8B1B4",
"4X c #9CEC95",
"5X c #95F28A",
"6X c #A3F498",
"7X c #B1D2A5",
"8X c #B3EEB3",
"9X c #B9F1B4",
"0X c #AEF0A9",
"qX c #B2CE94",
"wX c #CFE8B9",
"eX c #C8F9B5",
"rX c #C5E0A9",
"tX c #C4BDC4",
"yX c #CAC7C6",
"uX c #D8D7D7",
"iX c #D3CDD1",
"pX c #CEFEC8",
"aX c #D7F6D6",
"sX c #D4EDD1",
"dX c #E4FDDA",
"fX c #D3F6E3",
"gX c #EDFFE5",
"hX c #EEFFEC",
"jX c #E6F9E3",
"kX c #F3FEED",
"lX c #F2F9E7",
"zX c #E8FCF6",
"xX c #F4FFF2",
"cX c #FDFEFD",
"vX c #F7FCF7",
/* pixels */
"=.*.2.i.>.>.7./ w e > <XzXsXC.S.C I [.#X[.J P U Y F m j n v d Z ",
"=.3.*.2.*.:.p.j.u * ,XfXzXjXwXf L.J.[.oXP M A v Y Y b E.OXG.{.c ",
"*.i.1.1.=.3.,.+.Z.2XaXcXcXcXlXwXXX*XJ.+Xg A A P G.i F.OX%X&XB M ",
"^ ,.u.4.3.2.Q ..^.pXxXcXiX@ + & rXXX*XOXj V v v v Y c Z L [.#Xs ",
"R ' t.u.*.y.@.!.pXgXkXyX@     . & qX{.D.G I R.C #XH M m V V c m ",
"@.R ] 8.:.a.+./.dXkXvX3X        o wXh %X&XE.J.H.U M K H c V L V ",
"u.%.W 6.y.p.o.U.0XhXcX3X    X   . I.XX*X*X{.D.}.[.B K @XJ.h Z C ",
"2.2.W ] 5.p.( f.~.8XxXuX1     o $ A.W.T.R.C S {.#X(.H U %XH.Z C ",
"3.,.5.W Q q.0.k.f.U.9XkXuX< V.$ u r 9 9 m.m.E.P P [.U P [.V V F.",
"i.y.7.Q Q ] 5.w.9.d.Y.0XgXdX4Xy j.k.z.z.{ 0 Q.B.I A v A A z OXOX",
"*.*.3.1.%.Q ' [ 6.z.r U.6X5Xu ..@.l.q.7.s.O.` n.G V v D B (.@XU ",
"a.:.1.4.u.t.@.` [ [ j.f.t g.} o.T ] <.s.2.u.x.` a G U [.[.@X$XN.",
"0.0.q.6.6.t.#.#.' O.r.q.8.u.u.8.[ ' W ] <.y.%.x.' b.B.J.L.%X+XN.",
"^ ^ o.@.' T _ @.' W ^ u.2.1.1.8.6.z.' ' ! o.7.5.e.X.G ].|.= {.j ",
"q.! ! w.l.9.o.o.8.,.^ ( E e.r.t.l.O.l.z.....} j.j.a ].'.6 4 - ].",
"e.T ! 9.9.~ ^ 5.p.;.k.h.} _ T W ^ ^ ( _  .0 { { #.b.p 3 5 2 '..X",
"R R j.+.! ! 5.7.0.;.( / o.5.u.&.3.y.9.c.f.{ ! 5.t.0 n `.: 3 -  X",
"( k.z.+.R ' r.q.w.E ( k.q.y.1.4.4.u.! R _ 9.6.6.t.b.j ].|.:X:X X",
"5.] R @.@.' #.#.' ~ 5.*.&.3.1.,.W ' ' 6.5.7.q.z.| n.E.H.D.}.=XD ",
"7.<.Q 6.e.#.@._ ' r.s.7.u.8.r.W ' O.6.u.,.p.e.| m.k j j b c L g ",
"2.2.2.8.o.@._ ' 8.,.O.+. . ..._ [ u.*.y.x.z.| q k F c OX&XP {.v ",
"2.1.1.%.W ] ~ q.8.l. .M.5X5Xu g.r.,.p.x.8 9 m.E.Y v P [.#X-XG.D.",
",.u.5.) ~ p.p.7.9.9 A.0XdXaX4XZ.+.e.{ 9 l l j d x J x J (.H oXn ",
"s.5.W ~ p.;.y.9.d.Y.8XhXsX< V.% u t m.T.T.F.G.P #X).x s n n H v ",
"l.9.! 7.7.p.O.d.A.9XxXuX1 . . o # ;XW.R.$XN.K K J (.m n b L S C ",
"@.E ~ p.*.8.$.U.0XgXvXtX      . . I.XX=X#XN._.N.H oXY oXG.V h C ",
"! ~ %.&.3.8.| >XdXdXcX3XX       X sXC.%XN.N N N.@X+XI Y H H P V ",
"~ y.3.&.3.u.` !.eXgXvXyXO X     , 7XXX*Xb N.@XY I R.I U oXz z _.",
"*.*.3.3.&.4.]  .^.pXxXcXuXO O ; 7XK.S.D.#X#XE.&X%XL Z Z F b N.#X",
"=.&.&.3.&.1.q.f.u 2XfXzXvXcXlXwX;XL.D.{.P P G.D.g J.J.Z F.E.@X_.",
",.3.&.&.3.y.v.c.u w ,XzXvXdXeXK.S.G.I V V z S v S Z Z F.+X$X-XB ",
"u.1.-.=.*.a.v./ 7 w > 1XvXsXK.Z V F Y F F z =X{.D.H.F.F.U (.#X)."
};
