/* XPM */
static char *_e26cd30a00e4e17923818ddb99b6faaPyPIRHzuW6ZbqFnu[] = {
/* columns rows colors chars-per-pixel */
"32 32 253 2 ",
"   c #1FF709",
".  c #1FFA06",
"X  c #1CBC2A",
"o  c #1A834A",
"O  c #1A8449",
"+  c #198448",
"@  c #5FA87E",
"#  c #FFFBFC",
"$  c #D8E6DD",
"%  c #278B53",
"&  c #1B854A",
"*  c #1A8549",
"=  c #1FF708",
"-  c #1FF30B",
";  c #1DBA2B",
":  c #167F48",
">  c #5FA77E",
",  c #EDF1ED",
"<  c #FBF8F8",
"1  c #F8F6F5",
"2  c #CBDFD3",
"3  c #268A52",
"4  c #1EF708",
"5  c #1FF609",
"6  c #1EF808",
"7  c #25DF12",
"8  c #25BE1A",
"9  c #6EC86D",
"0  c #E9EDEC",
"q  c #FDF9F9",
"w  c #FCF9F9",
"e  c #F9F7F7",
"r  c #CCE0D3",
"t  c #278B54",
"y  c #2ACE19",
"u  c #20F20A",
"i  c #26DD13",
"p  c #25C215",
"a  c #75D36A",
"s  c #E8F3E3",
"d  c #FEF9FA",
"f  c #FFFCFC",
"g  c #D4D2D2",
"h  c #343333",
"j  c #353434",
"k  c gray26",
"l  c #BDD3C5",
"z  c #2C8E57",
"x  c #2EBF1F",
"c  c #22D410",
"v  c #7CD372",
"b  c #E4F1E0",
"n  c #FFF9FC",
"m  c #CAC8C8",
"M  c #323131",
"N  c black",
"B  c #050405",
"V  c #474646",
"C  c #AEC7B8",
"Z  c #35935F",
"A  c #24E311",
"S  c #2DC21E",
"D  c #2ACF19",
"F  c #21EF0C",
"G  c #20D40E",
"H  c #9EDE97",
"J  c #FFFBFF",
"K  c #FAF7F7",
"L  c #FFFDFD",
"P  c #B6B4B4",
"I  c gray4",
"U  c #DEE0DF",
"Y  c #409A68",
"T  c #188347",
"R  c #24E310",
"E  c #2DC41D",
"W  c #21EC0D",
"Q  c #25D413",
"!  c #55C849",
"~  c #BEE8B8",
"^  c #FFFAFF",
"/  c #040705",
"(  c #659E7E",
")  c #2A8D56",
"_  c #198449",
"`  c #2CC81C",
"'  c #28D317",
"]  c #20F10B",
"[  c #1EF908",
"{  c #23E80E",
"}  c #23CA12",
"|  c #53C846",
" . c #BEE8B9",
".. c #FFFDFF",
"X. c #DDDADA",
"o. c #676666",
"O. c #010701",
"+. c #166011",
"@. c #147A40",
"#. c #19804B",
"$. c #1A804C",
"%. c #1B8549",
"&. c #25DE12",
"*. c #20F00B",
"=. c #1DFB07",
"-. c #22EA0E",
";. c #52C845",
":. c #C0E8BB",
">. c #FFFEFF",
",. c #E1E1E1",
"<. c #767374",
"1. c #70726E",
"2. c #1B6214",
"3. c #2DBD1F",
"4. c #1FBB2A",
"5. c #1CBA2B",
"6. c #1CBB2B",
"7. c #1B9043",
"8. c #1A7F4C",
"9. c #25DE13",
"0. c #25E011",
"q. c #22EB0D",
"w. c #24CA13",
"e. c #50C843",
"r. c #C4E9BE",
"t. c #F3FCF2",
"y. c #A4E79C",
"u. c #34CA24",
"i. c #27D815",
"p. c #20F708",
"a. c #1FFB06",
"s. c #1FFC05",
"d. c #1DC624",
"f. c #1CB230",
"g. c #1B9540",
"h. c #1A814B",
"j. c #29D118",
"k. c #25C914",
"l. c #4EC741",
"z. c #BBE5B4",
"x. c #A0DE97",
"c. c #2ABE1B",
"v. c #24E410",
"b. c #1FF907",
"n. c #1FFD05",
"m. c #1DCC21",
"M. c #1B9242",
"N. c #1A824B",
"B. c #1DFA07",
"V. c #24E111",
"C. c #29D018",
"Z. c #22EC0D",
"A. c #28CE17",
"S. c #24CE12",
"D. c #25CE13",
"F. c #29CF18",
"G. c #2DC11E",
"H. c #24E211",
"J. c #1FF409",
"K. c #1DCD20",
"L. c #1B9142",
"P. c #22EA0D",
"I. c #1FF509",
"U. c #21ED0C",
"Y. c #21ED0D",
"T. c #26DB14",
"R. c #2DC31D",
"E. c #29CF19",
"W. c #2BCB1A",
"Q. c #1FF30A",
"!. c #1DCF1F",
"~. c #1A844A",
"^. c #1B8449",
"/. c #1A854A",
"(. c #18854A",
"). c #2BC91B",
"_. c #23E70F",
"`. c #2BC81B",
"'. c #20F30A",
"]. c #1CC922",
"[. c #19814C",
"{. c #218249",
"}. c #3D7947",
"|. c #3A7A47",
" X c #1C8449",
".X c #2CC71C",
"XX c #26DC13",
"oX c #1EFA07",
"OX c #2CC61C",
"+X c #2CC51D",
"@X c #2ACD19",
"#X c #2EC01F",
"$X c #26DA14",
"%X c #1EF907",
"&X c #27C622",
"*X c #33784A",
"=X c #307D48",
"-X c #5A6F44",
";X c #E93D39",
":X c #BE4C3C",
">X c #238249",
",X c #22E90E",
"<X c #1FE311",
"1X c #67B11C",
"2X c #DD3E3C",
"3X c #D6443A",
"4X c #DE413A",
"5X c #D1463B",
"6X c #337C48",
"7X c #2CC41D",
"8X c #23C722",
"9X c #2A7B4A",
"0X c #278049",
"qX c #527145",
"wX c #E53F39",
"eX c #C14B3C",
"rX c #2ACC1A",
"tX c #2EBE1F",
"yX c #25E012",
"uX c #20F20B",
"iX c #25E111",
"pX c #1FF40A",
"aX c #1FFA07",
"sX c #1DC823",
"dX c #1A814C",
"fX c #1F8349",
"gX c #23E60F",
"hX c #29D217",
"jX c #21EE0C",
"kX c #1DCB22",
"lX c #1B8C45",
"zX c #19854A",
"xX c #27D915",
"cX c #23E50F",
"vX c #1DC923",
"bX c #1B8D44",
"nX c #1DC724",
"mX c #1B8F44",
"MX c #28D616",
"NX c #1DC027",
"BX c #1CAA34",
"VX c #27D616",
"CX c #34CA25",
"ZX c #20F509",
"AX c #1CBE29",
"SX c #1B8E44",
"DX c #2BC81C",
"FX c #23E90E",
"GX c #1FBA2B",
"HX c #1B8A47",
"JX c #147B40",
"KX c #198349",
"LX c white",
/* pixels */
"            . X o O + @ # $ % & * & & & & & & & & & & & & & & & ",
"            = - ; : > , < 1 2 3 & O & & & & & & & & & & & & & & ",
"4 4       5 6 7 8 9 0 q < w e r t O & & & & & & & & & & & & & & ",
"y u 4 5   6 i p a s d f g h j k l z + & & & & & & & & & & & & & ",
"x y u 4 5 6 c v b n f m M N N B V C Z + & & & & & & & & & & & & ",
"A S D F 4 6 G H J K L P N N N N I U Y T & & & & & & & & & & & & ",
"4 R E W 6 6 Q ! ~ ^ L P N N N N / ( ) _ & & & & & & & & & & & & ",
"4 4 ` ' ] [ { } |  ...X.o.N N O.+.@.#.$.o %.& & & & & & & & & & ",
"  5 &.S ' *.=.-.} ;.:.>.,.<.1.2.3.4.5.6.7.8.o %.& & & & & & & & ",
"  4 6 9.S ' 0.*.q.w.e.r.J t.y.u.i.p.a.s.d.f.g.h.%.& & & & & & & ",
"    5 [ i j.E j.] q.k.l.z.x.c.S v.5 6 4 b.n.m.M.N.%.& & & & & & ",
"4 4 4 4 [ B.V.E C.] Z.A.S.D.F.y G.H.{ J.6 4 a.K.L.N.%.& & & & & ",
"P.q.I.U.-.P.Y.T.R.C.] 6 6 4 6 J.E.W.G.V.q.Q.4 a.!.7.~.^./.(.(./.",
").S _.j.`.).S 7 v.S D F *.4 4 4 4 5 j.).G.&.F '.a.].[.(.{.}.|. X",
"Q..XG.q.4 Q.j.XXoXA OX+XW.*.*.*.*.*.*.*.@X#X#X$X%X&X*X=X-X;X:X>X",
"*.OXR.,XI.' G.7 [ J.] R G..X.X.X.X.X.X.XS #X#XS <X1X2X3X4X5X6X X",
"7XE q.D E S 7 5 4 V.E +X@X'.'.'.'.'.] ] @XG.G.XXoX8X9X0XqXwXeX>X",
"R.P.I.rXtXyXI.6 yXG.j.uXu 4 4 4 5 I.y .XS iXuXpXaXsXdX/.fX6X=X X",
"W @X)._.@XE gXyXS hXu 4 4 5 4 Q.rX).G.v.jXpX4 . kXlX~.^./.zXzX/.",
"4 q.OXq.*.W xXS ' ] 6 4 4 6 '.@XS cXq.I.4 4 a.vXbXo %.& & & & & ",
"4 4 P.I.T.D R.' ] %X-.A.S.D.@XR.gX5 6 4 b.n.nXmXN.%.& & & & & & ",
"  4 %XT.G.MXv.F oX-.k.l.z.x.c.+XI.4 aXs.NXBXM.N.%.& & & & & & & ",
"  5 T.G.VX] [ oX,Xw.e.r.J t.y.CXMXZXAXf.SX$.o %.& & & & & & & & ",
"4 4 DXMXuX6 [ FX} ;.:.>.,.<.1.2.3.GXHX$.o %.& & & & & & & & & & ",
"4 yXR.W 6 4 FX} |  ...X.o.N N O.+.JXKX& & & & & & & & & & & & & ",
"7 G.hX*.4 6 Q ! ~ ^ L P N N N N / ( ) _ & & & & & & & & & & & & ",
"tXj.u 4 5 6 G H J K L P N N N N I U Y T & & & & & & & & & & & & ",
"j.Q.4 5   6 c v b n f m M N N B V C Z + & & & & & & & & & & & & ",
"4 4 5     6 i p a s d f g h j k l z + & & & & & & & & & & & & & ",
"          5 6 7 8 9 0 q < w e r t O & & & & & & & & & & & & & & ",
"            = - ; : > , < 1 2 3 & O & & & & & & & & & & & & & & ",
"            . X o O + @ # $ % & * & & & & & & & & & & & & & & & "
};
