/* XPM */
static char *e579f8ef0e074e448003d26b0d4a189dqN6NcdWiM0zTeAz5[] = {
/* columns rows colors chars-per-pixel */
"32 32 252 2 ",
"   c #1B854A",
".  c #1A854A",
"X  c #1C8449",
"o  c #238249",
"O  c #18854A",
"+  c #3A7A47",
"@  c #BE4C3C",
"#  c #337C48",
"$  c #C14B3C",
"%  c #307D48",
"&  c #19854A",
"*  c #3D7947",
"=  c #E93D39",
"-  c #D1463B",
";  c #E53F39",
":  c #218249",
">  c #5A6F44",
",  c #DE413A",
"<  c #527145",
"1  c #1F8349",
"2  c #1B8449",
"3  c #D6443A",
"4  c #278049",
"5  c #1B8549",
"6  c #1A844A",
"7  c #19814C",
"8  c #33784A",
"9  c #DD3E3C",
"0  c #2A7B4A",
"q  c #1A814C",
"w  c #1A824B",
"e  c #1B9043",
"r  c #1CC922",
"t  c #27C622",
"y  c #67B11C",
"u  c #23C722",
"i  c #1DC823",
"p  c #1B8C45",
"a  c #1A834A",
"s  c #1B9142",
"d  c #1DCF1F",
"f  c #1FFB06",
"g  c #1EF907",
"h  c #1FE311",
"j  c #1EFA07",
"k  c #1FFA07",
"l  c #1DCB22",
"z  c #1B8D44",
"x  c #1A814B",
"c  c #1B9242",
"v  c #1DCD20",
"b  c #20F30A",
"n  c #26DA14",
"m  c #2DC21E",
"M  c #26DC13",
"N  c #1FF40A",
"B  c #1FFA06",
"V  c #1DC923",
"C  c #1B8F44",
"Z  c #1B9540",
"A  c #1DCC21",
"S  c #1EF708",
"D  c #21EF0C",
"F  c #2EC01F",
"G  c #2DC11E",
"H  c #20F20B",
"J  c #1DC724",
"K  c #1A7F4C",
"L  c #1CB230",
"P  c #1FFD05",
"I  c #1FF30A",
"U  c #25DE12",
"Y  c #25E111",
"T  c #1CAA34",
"R  c #1A804C",
"E  c #1DC624",
"W  c #1FF907",
"Q  c #1EF808",
"!  c #22EB0D",
"~  c #2ACD19",
"^  c #21EE0C",
"/  c #1DC027",
"(  c #1B8E44",
")  c #198448",
"_  c #188347",
"`  c #198449",
"'  c #1CBB2B",
"]  c #1FFC05",
"[  c #1FF409",
"{  c #24E111",
"}  c #2BC91B",
"|  c #20F00B",
" . c #2CC71C",
".. c #20F10B",
"X. c #24E410",
"o. c #1FF509",
"O. c #35935F",
"+. c #429A69",
"@. c #2A8D56",
"#. c #19804B",
"$. c #1CBA2B",
"%. c #23E80E",
"&. c #29D118",
"*. c #2ACE19",
"=. c #1CBE29",
"-. c #1B8A47",
";. c #198349",
":. c #1A8449",
">. c #2C8E57",
",. c #AEC7B8",
"<. c #E5DFE1",
"1. c #659D7E",
"2. c #147A40",
"3. c #1FBB2A",
"4. c #20F708",
"5. c #1FF609",
"6. c #24E211",
"7. c #2BCB1A",
"8. c #23E50F",
"9. c #20F509",
"0. c #1FBA2B",
"q. c #147B40",
"w. c #1A8549",
"e. c #278B54",
"r. c #BDD3C5",
"t. c #474546",
"y. c gray2",
"u. c #030104",
"i. c #165F11",
"p. c #2DBD1F",
"a. c #27D815",
"s. c #29CF19",
"d. c #2ACC1A",
"f. c #23E60F",
"g. c #28D616",
"h. c #268A52",
"j. c #CCE0D3",
"k. c gray26",
"l. c #010001",
"z. c black",
"x. c #1B6214",
"c. c #34CA24",
"v. c #2DC31D",
"b. c #2CC51D",
"n. c #34CA25",
"m. c #278B53",
"M. c #CBDFD3",
"N. c #F9F7F7",
"B. c #353435",
"V. c #70726E",
"C. c #A5E79C",
"Z. c #2ABE1B",
"A. c #29CF18",
"S. c #D8E6DD",
"D. c #F8F6F5",
"F. c #FCF9F9",
"G. c #353434",
"H. c #767475",
"J. c #FCFFF9",
"K. c #A0DE97",
"L. c #25CE13",
"P. c #FEFBFC",
"I. c #FBF8F8",
"U. c #D4D2D2",
"Y. c #343434",
"T. c #676666",
"R. c #E5E2E2",
"E. c #FFFCFF",
"W. c #B9E5B4",
"Q. c #24CE12",
"!. c #20F20A",
"~. c #5FA87E",
"^. c #EBF1ED",
"/. c #FFFCFC",
"(. c #CAC8C8",
"). c #B5B3B3",
"_. c #B4B2B2",
"`. c #DDDBDA",
"'. c white",
"]. c #C3E9BE",
"[. c #4EC741",
"{. c #28CE17",
"}. c #24E310",
"|. c #5EA77E",
" X c #E7EDEB",
".X c #FDF9FA",
"XX c #FDFCFC",
"oX c #FFFDFD",
"OX c #FFFDFF",
"+X c #BFE8BA",
"@X c #50C843",
"#X c #25C914",
"$X c #22EC0D",
"%X c #2ACF19",
"&X c #2CC61C",
"*X c #2DC41D",
"=X c #22EA0E",
"-X c #167F48",
";X c #6EC86D",
":X c #E5F3E2",
">X c #FEF9FC",
",X c #FAF7F7",
"<X c #FFFAFF",
"1X c #BEE8B9",
"2X c #52C846",
"3X c #24CA13",
"4X c #29D018",
"5X c #24E311",
"6X c #29D217",
"7X c #1DBA2B",
"8X c #25BE1A",
"9X c #75D36A",
"0X c #E2F1DF",
"qX c #FFFBFF",
"wX c #53C846",
"eX c #23CA12",
"rX c #1EF908",
"tX c #25E012",
"yX c #28D317",
"uX c #22E90E",
"iX c #1CBC2A",
"pX c #1FF30B",
"aX c #25DF12",
"sX c #25C215",
"dX c #7CD372",
"fX c #A2DE9A",
"gX c #55C849",
"hX c #26DB14",
"jX c #23E90E",
"kX c #1FF708",
"lX c #26DD13",
"zX c #22D410",
"xX c #20D40D",
"cX c #25D413",
"vX c #1DFB07",
"bX c #25E011",
"nX c #21ED0D",
"mX c #27D915",
"MX c #1FF709",
"NX c #1DFA07",
"BX c #22EA0D",
"VX c #21EC0D",
"CX c #2BC81B",
"ZX c #2EBE1F",
"AX c #27D616",
"SX c #25DE13",
"DX c #21ED0C",
"FX c #23E70F",
"GX c #2CC81C",
"HX c #2BC81C",
"JX c #2EBF1F",
"KX c #2CC41D",
/* pixels */
"                        . X o X o X .                           ",
"                        O + @ # $ % &                           ",
"                        O * = - ; # &                           ",
"                        . : > , < 1 .                           ",
"                        2 O % 3 4 . 2                           ",
"                      5 6 7 8 9 0 q 6 5                         ",
"                    5 w e r t y u i p a 5                       ",
"                  5 w s d f g h j k l z w 5                     ",
"                5 x c v f b n m M N B V C w 5                   ",
"                a Z A f S D F F G H S f J c a                   ",
"              5 K L P S I U F F G Y N S P T R 5                 ",
"              a e E W Q ! G ~ m ~ m ^ S W / ( a                 ",
"        ) _ ` R ' ] S [ { } |  ... .X.o.S ] L R   ` _ )         ",
"      ) O.+.@.#.$.f Q %.G &.|  ...*.G ! Q k =.-.;.@.+.O.)       ",
"  :.:.>.,.<.1.2.3.4.5.6.7.5.|  .b o.} 8.5.S 9.0.q.1.<.,.>.:.:.  ",
"w.  e.r.t.y.u.i.p.a.X.G s.S |  .b 5.d.m f.o.g.p.i.u.y.t.r.e.  w.",
"  h.j.k.l.z.z.z.x.c.m *.[ S |  .b S I ~ v.b.n.x.z.z.z.l.k.j.h.  ",
"m.M.N.B.z.z.z.z.V.C.Z.A.Q S |  .b S S b ~ Z.C.V.z.z.z.z.B.N.M.m.",
"S.D.F.G.z.z.z.z.H.J.K.L.S S |  .b S 5.Q L.K.J.H.z.z.z.z.G.F.D.S.",
"P.I.I.U.Y.z.z.T.R.E.W.Q.Q | 7.G ~ !.S S Q.W.E.R.T.z.z.Y.U.I.I.P.",
"~.^.F./.(.)._.`.'.].[.{.Q D b.}.b.H S S {.[.].'.`._.).(./.F.^.~.",
") |. X.XXXoXoXOX+X@X#X$X..%X&X..*X&.!.Q =X#X@X+XOXoXoXXX.X X|.) ",
":.-X;X:X>X,X<X1X2X3X! ..4Xm 5X[ { G 6X..g =X3X2X1X<X,X>X:X;X-X:.",
"a 7X8X9X0XqX1XwXeX! ..4Xv.X.j rXS tXm yX..j uXeXwX1XqX0X9X8X7Xa ",
"iXpXaXsXdXfXgXeX=X| &.*XhXaXM aX5.Q tXm yXD j jXeXgXfXdXsXaXpXiX",
"B kXQ lXzXxXcX%.vXbX*X{ nXm &.G aXo.f.mXv.X.rXrXjXcXxXzXlXQ kXB ",
"MXMX5.Q Q Q Q rX| yX&.NXBX} I yXm tX*XVX%Xg...Q S Q Q Q Q 5.MXMX",
"MXMXMXMX5.S Q ..yXm lXrX=XCXS o.*XZX~ | hXG AXH Q S 5.MXMXMXMXMX",
"MXMXMX5.S D VXyXm SXrXS DX&.! uX%Xd.FX! o.hXG g.VX| S 5.MXMXMXMX",
"MXMXMXS !.%X*XGXU Q 5.S o.FXG v.! o.} &XBXg hXHXv.6X!.S 5.MXMXMX",
"MXMXS !.*.m }.S 5.S MXS ! m  .&X*XBX~ ! S S 5.S tXG &.I S MXMXMX",
"MXMXS *.JX5XS S MXMXMXS BX} I | KXv.VXS S MXMXS S aXZX&.S MXMXMX"
};
