/* XPM */
static char *_7b97f684aee4a0fd52c49678d30b64dYteE1EaYa1qVfOku[] = {
/* columns rows colors chars-per-pixel */
"32 32 235 2 ",
"   c #020202",
".  c #000B00",
"X  c #050909",
"o  c #031601",
"O  c #362E34",
"+  c #3A3837",
"@  c #34302D",
"#  c #1E5A10",
"$  c #176516",
"%  c #13610D",
"&  c #3A472C",
"*  c #257B3A",
"=  c #59711D",
"-  c #74781F",
";  c #414739",
":  c #7A6121",
">  c #327851",
",  c #414D41",
"<  c #687C67",
"1  c #6B6E69",
"2  c #A3552E",
"3  c #8C6B29",
"4  c #9F6233",
"5  c #B6613C",
"6  c #985028",
"7  c #039F18",
"8  c #18BE06",
"9  c #26B717",
"0  c #32BC18",
"q  c #34B30F",
"w  c #138827",
"e  c #21803C",
"r  c #29BE24",
"t  c #37BD24",
"y  c #38B736",
"u  c #30AC2E",
"i  c #668116",
"p  c #42B918",
"a  c #66A61B",
"s  c #5B9C23",
"d  c #5D9336",
"f  c #619D28",
"g  c #639935",
"h  c #5CA526",
"j  c #5CB52D",
"k  c #54B230",
"l  c #6AA425",
"z  c #65A42B",
"x  c #6BA52C",
"c  c #65AA2A",
"v  c #6BAC2C",
"b  c #64A424",
"n  c #72AD29",
"m  c #6DB524",
"M  c #77B22D",
"N  c #65A434",
"B  c #6CA631",
"V  c #6BAC33",
"C  c #6AAB3A",
"Z  c #67A738",
"A  c #75AD33",
"S  c #71AC3B",
"D  c #7BAF35",
"F  c #6DB334",
"G  c #69B839",
"H  c #75B434",
"J  c #7BB535",
"K  c #7BBA33",
"L  c #75B43B",
"P  c #7BB63C",
"I  c #74B93C",
"U  c #7BBA3C",
"Y  c #74B837",
"T  c #1CCE02",
"R  c #1CCC0B",
"E  c #17CB08",
"W  c #1BD303",
"Q  c #1CDA05",
"!  c #1CD30B",
"~  c #1BDA0B",
"^  c #15D709",
"/  c #18CA14",
"(  c #1AD614",
")  c #0FCF00",
"_  c #22CD0D",
"`  c #28C50C",
"'  c #23D30C",
"]  c #23DB0D",
"[  c #26D709",
"{  c #24C511",
"}  c #2ECD1D",
"|  c #28CA16",
" . c #34C315",
".. c #32C31D",
"X. c #30C91D",
"o. c #3ECE1F",
"O. c #24DB13",
"+. c #2BDC15",
"@. c #2AD618",
"#. c #33D91C",
"$. c #1DE708",
"%. c #1DF504",
"&. c #1CF30C",
"*. c #1DFA0A",
"=. c #1FF807",
"-. c #1BF612",
";. c #1FED11",
":. c #23ED0D",
">. c #25E60C",
",. c #23F307",
"<. c #23F40B",
"1. c #23F90C",
"2. c #27F70B",
"3. c #23E412",
"4. c #2CE513",
"5. c #25EC13",
"6. c #2BED13",
"7. c #2BE31C",
"8. c #26EC1B",
"9. c #2CEC1A",
"0. c #24E418",
"q. c #32E41C",
"w. c #32EC1C",
"e. c #35E718",
"r. c #23F113",
"t. c #2BF213",
"y. c #2BF41B",
"u. c #23F617",
"i. c #33F61C",
"p. c #2BC623",
"a. c #3AC627",
"s. c #26D721",
"d. c #34DB26",
"f. c #29E726",
"g. c #33EB22",
"h. c #37E725",
"j. c #37F624",
"k. c #37E235",
"l. c #2BF128",
"z. c #45C31C",
"x. c #54C72C",
"c. c #57C835",
"v. c #4AC931",
"b. c #62C23B",
"n. c #79C23A",
"m. c #7BC32F",
"M. c #59895A",
"N. c #6B9554",
"B. c #48B944",
"V. c #5CBE52",
"C. c #75AA48",
"Z. c #7BB544",
"A. c #75BC43",
"S. c #7BBB42",
"D. c #7BBB4A",
"F. c #75B647",
"G. c #73A755",
"H. c #7CB951",
"J. c #64BC58",
"K. c #53C948",
"L. c #57C453",
"P. c #4DD547",
"I. c #6CC848",
"U. c #7EC244",
"Y. c #7BC34B",
"T. c #75C747",
"R. c #76C655",
"E. c #70DA46",
"W. c #6FE258",
"Q. c #5DC860",
"!. c #77D270",
"~. c #7CEB69",
"^. c #81BD3C",
"/. c #87BB38",
"(. c #83C33B",
"). c #8D9A42",
"_. c #B29D53",
"`. c #85AD48",
"'. c #83BC43",
"]. c #83BD4A",
"[. c #87B746",
"{. c #95AA58",
"}. c #91B44B",
"|. c #A2B752",
" X c #8AB965",
".X c #85C445",
"XX c #84C54C",
"oX c #85CB4D",
"OX c #8CCC4B",
"+X c #8BC746",
"@X c #8CD14D",
"#X c #83C352",
"$X c #8CCA53",
"%X c #8AC559",
"&X c #93CA56",
"*X c #93CE50",
"=X c #ADC85F",
"-X c #87C46A",
";X c #B2C269",
":X c #85EE6E",
">X c #6AA483",
",X c #71A58F",
"<X c #739587",
"1X c #7EC485",
"2X c #B8B1B4",
"3X c #9CEC95",
"4X c #95F28A",
"5X c #A3F498",
"6X c #B1D2A5",
"7X c #B4EEB4",
"8X c #B9F1B4",
"9X c #AEF0A9",
"0X c #B2CD96",
"qX c #CFE9B9",
"wX c #C8F9B5",
"eX c #C5E0A9",
"rX c #C4BDC4",
"tX c #CBC7C7",
"yX c #D8D7D7",
"uX c #D3CDD1",
"iX c #D3ECCE",
"pX c #CEFEC8",
"aX c #D6F8D4",
"sX c #D7E5D6",
"dX c #E4FED9",
"fX c #D3F7E2",
"gX c #EDFFE5",
"hX c #EEFFEC",
"jX c #E6F7E2",
"kX c #F3FEED",
"lX c #F2F9E7",
"zX c #E8FCF6",
"xX c #F3FFF3",
"cX c #FDFEFD",
"vX c #F8FBF6",
/* pixels */
"N z n a c V C Z A.XXU n.n.h `.|.}.}.D z B S.l x Z C B (.+X(.M /.",
"s ].M +Xz L Z N B XXOX@XoX].- _.- =X&XL ].S..XH S g P b n.OX*XOX",
"x S.$X'.V V g D.B l ^.OX#X= 4 2 3 ;X[.z P &XH v L V H b c U.@X^.",
"x XX#XL B z F.#X].A M ].H.{.6 5 : {.Z.c $X+X^.v c S.H .XF A.oXU ",
"h U.XXN l J OXU P A D '.F.`._.3 ).`.D.h XX'.J a v .XY U V N A.A.",
"c c A.z n K K H U x x U b.G }.i x h T.h z U l n l Y Y I N L Z A.",
"F F s Y J M M ^.].A V G z.o.p z.0 z.x.j F x J /.^..XoXY.F.F.N D.",
"Y H S.x OXU '.+XP I G p ' q.d.#.e.e. .c.j Y l +XJ H oXI #Xf S F.",
"U x P x C D.Z.].P n.x.` j.3.#.{ 3.8.h. .q T.s P K n.n.Y $XS.x ].",
"P A A x Y.F.D.S Y.E.` j.$.5.| { ! 8.9.q. .c.h U.K (.m OXU.D.S $X",
"J M A B I T.].C b.0 +.t.r.O.X.0 { 7.5.y.h.q k A.n.m.m n.XXP z b ",
"'.P f h G @X%XY.c.{ i.<.$.! X...p._ 3.;.j.8 k A.@X+Xn.c +XL V F ",
"+X.XXXXXS.XX%XT.9 h.5.i.] ' h._ k.R 4.t.r.j.9 I.XX&X#X%XZ.].V F ",
"'.'.F.%X].g  XR.9 h.9.>.W ' g.( 7.! ' 4.&.y.{ c.Y. XN. XC.Z.I F ",
"I Z.%X X0XqXN.J.r f.g.] ' h.+.^ 5.t.' +.t.:.q.t -XN.iX6XG.H.S.F ",
"Z H. XeX& o . $ y d.#.T [ 4.g.^ 1.<.W ' [ w.} u # . X , 6X-XC.V ",
"C.d qX& .     o $ y } ' 6.6.w.W %.2.:.W _ a.B.% o .     ; qXG.Z ",
"N.qXlX+     X   M.3Xu | t.:.w.T t.,.,.w.X.u 3XM..       O lXwXG.",
"iXjXcX@         < dX4Xa.t.,.q._ 3.t.,.6...4XaX< .       O vXjXaX",
"zXzXcXuX@     1 sXgX5Xt 6.2.E | O.8.%.t...4XdXsX1     O yXvXvXxX",
",XfXcXcXtX2X2XyXkX9XL.p.9.t.^ s./ 9.&.5.| c.9XhXyXrX2XtXcXzXzX<X",
"> >XaXxXkXvXcXxX8XL.r d.w.^ ^ f.( ( 3.i.+...V.8XxXvXcXvXxXfX>X> ",
"e * 1XpXhXkXhX7XK.p.h.[ +.W >.5.0.E ~ w.:.g.9 L.8XgXgXgXaX1Xw w ",
"w u B.!.pXdX9XQ.p.7.4.[ ' ' 6.y.8.0.R ' 6.6.f.p.V.9XdXwX!.u u 7 ",
"/ d.@.} W.~.P.p.f.0.[ _ #.@.O.3.5.8.#._ ' 9.5.7.p.K.:XW...s.k./ ",
"5.y.:.Q @.} O.( 8.3.' @.#._ O.^ 3.w.#.@._ ~ y.r.+.#. .` ] 8.l.l.",
"-.-.1.1.r.8.y.y.9.] Q e.e.T 7.~ ! ' ' #.#.] y.;.y.6.6.t.2.,.r.u.",
"-.&.=.1.&.-.r.3.Q Q $.t.4.' g.7.! R @.q.O.W ~ y.5.:.1.1.%.%.1.&.",
"1.<.,.2.t.6.4.] W Q ,.<.4.O.7.7.@.@.@.4.6.Q ) ~ 5.y.%.%.1.1.%.=.",
"1.&.,.t.e.] W W >.5.1.<.9.O.Q ! d.h.R Q 2.,.3.W ! Q $.1.1.%.%.=.",
"&.1.u.:.' R $.<.:.r.&.;.8.^ ! T R f.] >.2.,.t.3.7.E Q r.&.%.1.,.",
"*.*.&.Q R #.t.<.1.u.&.u.8.^ 9.q.R ( 3.5.<.,.:.i.g.+.! ~ 1.=.:.t."
};
