/* XPM */
static char *a4a4ebfc753042c3e4df2ac489e11a02BjpIcutL4cyJINsp[] = {
/* columns rows colors chars-per-pixel */
"32 32 235 2 ",
"   c #020202",
".  c #000B00",
"X  c #050909",
"o  c #031601",
"O  c #362E34",
"+  c #3A3837",
"@  c #34302D",
"#  c #1E5A10",
"$  c #176516",
"%  c #13610D",
"&  c #3A472C",
"*  c #257B3A",
"=  c #59711D",
"-  c #74781F",
";  c #414838",
":  c #7A6121",
">  c #327851",
",  c #414D41",
"<  c #687C66",
"1  c #6B6E69",
"2  c #A3552E",
"3  c #8C6B29",
"4  c #9F6233",
"5  c #B6613C",
"6  c #985028",
"7  c #039F1A",
"8  c #19BD06",
"9  c #25B717",
"0  c #32BC18",
"q  c #34B30F",
"w  c #138828",
"e  c #20813A",
"r  c #29BE24",
"t  c #37BD24",
"y  c #38B736",
"u  c #30AC2D",
"i  c #599E1F",
"p  c #668116",
"a  c #42B918",
"s  c #66A61C",
"d  c #5D9B25",
"f  c #5D9336",
"g  c #639E28",
"h  c #639935",
"j  c #5CA526",
"k  c #5CB52D",
"l  c #54B230",
"z  c #6AA425",
"x  c #64A42B",
"c  c #6BA52C",
"v  c #65AA2B",
"b  c #6BAC2C",
"n  c #66A624",
"m  c #72AD29",
"M  c #6DB524",
"N  c #77B22D",
"B  c #65A534",
"V  c #6BA631",
"C  c #6BAC33",
"Z  c #6AAB3A",
"A  c #67A738",
"S  c #75AD33",
"D  c #71AC3C",
"F  c #7BAF35",
"G  c #6CB234",
"H  c #69B937",
"J  c #75B534",
"K  c #7BB534",
"L  c #75B935",
"P  c #74B43C",
"I  c #7BB53C",
"U  c #74B93C",
"Y  c #7ABB3D",
"T  c #7CBA34",
"R  c #1CCE02",
"E  c #1CCC0C",
"W  c #17CB08",
"Q  c #1BD303",
"!  c #1CDA05",
"~  c #1BD20B",
"^  c #1BDA0A",
"/  c #15D709",
"(  c #16C916",
")  c #1BD713",
"_  c #0FCF00",
"`  c #22CD0C",
"'  c #28C50C",
"]  c #23D30C",
"[  c #23DB0D",
"{  c #26D709",
"}  c #24C511",
"|  c #2FCC1D",
" . c #28C916",
".. c #34C315",
"X. c #32C31D",
"o. c #35CB1E",
"O. c #24DB13",
"+. c #2BDC15",
"@. c #2AD618",
"#. c #33D91C",
"$. c #1DE708",
"%. c #1DF504",
"&. c #1CF30C",
"*. c #1DFA0B",
"=. c #1FF807",
"-. c #1FE915",
";. c #1DF311",
":. c #1AFA14",
">. c #23EC0E",
",. c #25E60C",
"<. c #22F207",
"1. c #23F30B",
"2. c #23F90C",
"3. c #27F70B",
"4. c #23E412",
"5. c #2CE514",
"6. c #25EC13",
"7. c #2BED13",
"8. c #2BE31C",
"9. c #26EC1B",
"0. c #2BEC1A",
"q. c #27E418",
"w. c #32E41D",
"e. c #32EB1C",
"r. c #35E718",
"t. c #23F114",
"y. c #2BF213",
"u. c #23F812",
"i. c #2BF41B",
"p. c #23F31B",
"a. c #33F61D",
"s. c #2DC320",
"d. c #2AC924",
"f. c #3AC627",
"g. c #26D722",
"h. c #34DB26",
"j. c #2AE726",
"k. c #33EB22",
"l. c #38E826",
"z. c #37F624",
"x. c #37E234",
"c. c #2BF128",
"v. c #45C31C",
"b. c #54C72C",
"n. c #58C636",
"m. c #4AC931",
"M. c #79C33A",
"N. c #6FC337",
"B. c #598959",
"V. c #6A9554",
"C. c #48B944",
"Z. c #5CBE52",
"A. c #77AA4C",
"S. c #7BB544",
"D. c #76BC43",
"F. c #7BBB42",
"G. c #7BBB4A",
"H. c #77B748",
"J. c #73A756",
"K. c #7BB750",
"L. c #69B74D",
"P. c #52C84A",
"I. c #56C950",
"U. c #6CC848",
"Y. c #7BC44B",
"T. c #79C545",
"R. c #76C655",
"E. c #70DA46",
"W. c #6FE258",
"Q. c #5DC860",
"!. c #77D270",
"~. c #7CEB69",
"^. c #82BD3C",
"/. c #87BB38",
"(. c #83C33B",
"). c #8D9A42",
"_. c #B29D53",
"`. c #85AD47",
"'. c #83BC43",
"]. c #83BD4A",
"[. c #86B547",
"{. c #95AA58",
"}. c #81B953",
"|. c #98B446",
" X c #A4B653",
".X c #89B965",
"XX c #85C445",
"oX c #84C54C",
"OX c #85CB4D",
"+X c #8CCC4B",
"@X c #8BC646",
"#X c #8BD14D",
"$X c #84C352",
"%X c #8AC756",
"&X c #92C956",
"*X c #94D052",
"=X c #ADC85F",
"-X c #87C46A",
";X c #B2C269",
":X c #85EE6E",
">X c #6AA482",
",X c #71A58E",
"<X c #739489",
"1X c #7EC485",
"2X c #B8B1B4",
"3X c #9CEC95",
"4X c #95F28A",
"5X c #A3F498",
"6X c #B1D2A4",
"7X c #B4EEB4",
"8X c #B8F1B4",
"9X c #AEF0A9",
"0X c #B2CD96",
"qX c #CFE9B9",
"wX c #C8F9B5",
"eX c #C5E0A9",
"rX c #C4BDC5",
"tX c #CBC7C7",
"yX c #D8D7D7",
"uX c #D3CDD1",
"iX c #CEFEC8",
"pX c #D8E8D5",
"aX c #D6F8D8",
"sX c #D2F2CE",
"dX c #E4FDDA",
"fX c #D3F6E3",
"gX c #EDFFE6",
"hX c #EEFFEC",
"jX c #E6F9E3",
"kX c #F3FFEE",
"lX c #F2FAE7",
"zX c #E8FCF5",
"xX c #F4FFF2",
"cX c #FDFEFC",
"vX c #F6FCF7",
/* pixels */
"y.<.*.2.^ ~ @.w.a.3.1.1.6.4.) E w.0./ 9.p.&.u.&.1.y.#.E ! &.*.*.",
"<.2.=.&.t.^ W 8.4.y.<.1.,.[ j.E R ~ ~ 9.;.&.t.>.1.$.` ] ,.u.*.&.",
"=.%.%.2.2.$.^ ~ Q 4.<.1.! E l.h.~ ~ O.0.1.2.6.,.Q Q [ r.y.<.&.1.",
"*.=.2.2.%.=.i.6.^ _ $.7.5.@.@.@.8.8.O.5.1.<.! Q [ 5.7.y.3.<.1.u.",
"&.2.=.%.2.2.>.>.i.^ Q O.w.@.E E 8.k.` 5.y.$.^ ^ 4.t.;.&.2.*.&.:.",
"p.t.<.3.y.7.7.i.;.i.[ @.#.] ] ~ ^ 8.R r.r.! [ 0.i.i.p.t.1.2.;.:.",
"c.c.0.[ ' ..#.+.t.i.^ ` @.#.e.4./ O.` #.@.] 4.9.) O.| @.! >.i.6.",
"( x.d.X.W.:XP.s.8.6.0.] ` #.0.6.4.O.@.#.' { q.j.d.P.~.W.| @.h.( ",
"7 u u !.wXdX9XZ.s.8.7.7.] ` q.9.i.7.] ] { 5.8.d.Q.9XdXiX!.C.u w ",
"w w 1XiXgXgXgX8XI.9 k.,.e.) W -.6.>.Q +.{ l.s.P.7XhXkXgXiX,X* e ",
"> >XfXxXvXcXvXxX7XZ.X.+.a.4.) ) j./ / e.l.r I.8XxXcXvXkXxXaX>X> ",
"<XzXzXcXtX2XrXyXhX9Xm. .6.&.0.( g./ y.5.d.P.9XkXyX2X2XtXcXcXfX,X",
"vXvXvXyXO     1 pXdX4XX.y.=.9.O. .W 1.7.t 5XgXpX1     @ uXcXzXzX",
"pXdXcXO     . . < aX4XX.7.2.t.4. .w.<.y.f.4XdX<         @ cXjXsX",
"J.wXlXO     . . B.3Xu | e.3.<.y.R e.<.y. .u 3XB.. X     + lXqXV.",
"A J.qX;     . o % C.f.` R 7.3.%.Q w.7.7.] | y $ o . . . & qXf A.",
"C D -X6X, X . # u | e.[ ] Q 1.1./ k.5.{ R #.d.u $ . o & eX.XK.A ",
"G F.}.J.6XsXV.-Xt w.>.y.+.] y.t./ +.k.] [ k.j.r Z.V.qX0X.X%XH.U ",
"J U S.A..XV..XR.n.} i.&.5.] ~ 8.) k.] Q ,.0.l.9 R..Xh }.%XH.'.'.",
"G C ].S.%X$X&XoXU.9 z.t.y.5.E x.} l.] [ a.6.l.9 U.%XoXF.OXOX@X+X",
"G C I @Xv M.@X#XU.l 8 z.$.6.` d.X.| ~ -.1.z.} n.Y.%X#XH j g I XX",
"x x I @XM.M M.M.D.l q l.i.6.8.} 0 X.O.t.y.5.0 n.Z ].T.U b S N K ",
"&XD F.T.+XM (.L '.j n...w.i.5.~ }  .6.$.z.' E.T.D S.H.T.c S S K ",
"].c F.OXL M.M.T I d T.q ..l.5.4.} #.4.z.' b.N.I ].[.G.Z c I c Y ",
"S.D g oXU OXJ K @Xz U k n...r.r.#.h.w.] a H U I @X'.Y +Xc F.J U ",
"G.B H.P Y.OXXX^./.K c G k b.v.0 v.a o.v.H C S '.^.N N K U i G G ",
"D.A H.B U U U n z z I x j T.j b p [.H N.Y c c Y J T T m x D.v v ",
"D.D.B C Y L XXb s K '.oXj G.`.).3 _.`.H.'.F S I Y +XK n B oXT.j ",
"Y OXD.G XXK F.v b ^.@X%Xv S.{.: 5 6 {.K.'.N S '.$XH.x C P $XoXv ",
"^.#XT.v n J C P b J *XI x [.;X3 2 4 = $X+X^.z V G.h C C '.*XF.c ",
"+X*X+XM.n I h D J XXF.].P &X=X- _.- ].OX#X+XoXC B A P x @XN ].d ",
"/.N (.@X(.V Z A c b S.c g F |.|. X`.j M.M.Y oXD.A Z C n s m x B "
};
