/* XPM */
static char *e3842e5b4098457feb253582ec5de0baQiyvV3nPHmWmC9Vd[] = {
/* columns rows colors chars-per-pixel */
"32 32 252 2 ",
"   c #1FF709",
".  c #1EF708",
"X  c #2ACE19",
"o  c #2EBF1F",
"O  c #24E311",
"+  c #22EA0D",
"@  c #2BC91B",
"#  c #1FF30A",
"$  c #20F00B",
"%  c #2CC41D",
"&  c #2DC31D",
"*  c #21EC0D",
"=  c #25DF12",
"-  c #2EBE1F",
";  c #29D118",
":  c #20F20A",
">  c #2DC21E",
",  c #24E310",
"<  c #1FF609",
"1  c #22EB0D",
"2  c #2CC71C",
"3  c #2CC61C",
"4  c #2DC41D",
"5  c #2ACD19",
"6  c #25E012",
"7  c #2DC11E",
"8  c #2ACF19",
"9  c #2CC81C",
"0  c #25DE12",
"q  c #1EF808",
"w  c #1FF509",
"e  c #23E70F",
"r  c #1EF907",
"t  c #26DB14",
"y  c #2BC81C",
"u  c #29D217",
"i  c #21EF0C",
"p  c #28D317",
"a  c #25DE13",
"s  c #1EF908",
"d  c #21ED0C",
"f  c #22E90E",
"g  c #2ACC1A",
"h  c #28D616",
"j  c #20F10B",
"k  c #26DD13",
"l  c #22EA0E",
"z  c #2BC81B",
"x  c #27D616",
"c  c #20F20B",
"v  c #1DFA07",
"b  c #1FFA06",
"n  c #1FF708",
"m  c #22D410",
"M  c #20D40D",
"N  c #25D413",
"B  c #23E80E",
"V  c #1DFB07",
"C  c #25E011",
"Z  c #24E111",
"A  c #21ED0D",
"S  c #23E60F",
"D  c #27D915",
"F  c #24E410",
"G  c #23E90E",
"H  c #1CBC2A",
"J  c #1FF30B",
"K  c #25C215",
"L  c #7CD372",
"P  c #A2DE9A",
"I  c #55C849",
"U  c #23CA12",
"Y  c #26DC13",
"T  c #1EFA07",
"R  c #1A834A",
"E  c #1DBA2B",
"W  c #25BE1A",
"Q  c #75D36A",
"!  c #E2F1DF",
"~  c #FFFBFF",
"^  c #BEE8B9",
"/  c #53C846",
"(  c #29D018",
")  c #1A8449",
"_  c #167F48",
"`  c #6EC86D",
"'  c #E5F3E2",
"]  c #FEF9FC",
"[  c #FAF7F7",
"{  c #FFFAFF",
"}  c #52C846",
"|  c #24CA13",
" . c #1FF409",
".. c #198448",
"X. c #5EA77E",
"o. c #E7EDEB",
"O. c #FDF9FA",
"+. c #FDFCFC",
"@. c #FFFDFD",
"#. c #FFFDFF",
"$. c #BFE8BA",
"%. c #50C843",
"&. c #25C914",
"*. c #22EC0D",
"=. c #5FA87E",
"-. c #EBF1ED",
";. c #FCF9F9",
":. c #FFFCFC",
">. c #CAC8C8",
",. c #B5B3B3",
"<. c #B4B2B2",
"1. c #DDDBDA",
"2. c white",
"3. c #C3E9BE",
"4. c #4EC741",
"5. c #28CE17",
"6. c #2CC51D",
"7. c #FEFBFC",
"8. c #FBF8F8",
"9. c #D4D2D2",
"0. c #343434",
"q. c black",
"w. c #676666",
"e. c #E5E2E2",
"r. c #FFFCFF",
"t. c #B9E5B4",
"y. c #24CE12",
"u. c #2BCB1A",
"i. c #D8E6DD",
"p. c #F8F6F5",
"a. c #353434",
"s. c #767475",
"d. c #FCFFF9",
"f. c #A0DE97",
"g. c #25CE13",
"h. c #20F30A",
"j. c #278B53",
"k. c #CBDFD3",
"l. c #F9F7F7",
"z. c #353435",
"x. c #70726E",
"c. c #A5E79C",
"v. c #2ABE1B",
"b. c #29CF18",
"n. c #1B854A",
"m. c #268A52",
"M. c #CCE0D3",
"N. c gray26",
"B. c #010001",
"V. c #1B6214",
"C. c #34CA24",
"Z. c #34CA25",
"A. c #1A8549",
"S. c #278B54",
"D. c #BDD3C5",
"F. c #474546",
"G. c gray2",
"H. c #030104",
"J. c #165F11",
"K. c #2DBD1F",
"L. c #27D815",
"P. c #29CF19",
"I. c #2C8E57",
"U. c #AEC7B8",
"Y. c #E5DFE1",
"T. c #659D7E",
"R. c #147A40",
"E. c #1FBB2A",
"W. c #20F708",
"Q. c #24E211",
"!. c #23E50F",
"~. c #20F509",
"^. c #1FBA2B",
"/. c #147B40",
"(. c #35935F",
"). c #429A69",
"_. c #2A8D56",
"`. c #19804B",
"'. c #1CBA2B",
"]. c #1FFB06",
"[. c #1FFA07",
"{. c #1CBE29",
"}. c #1B8A47",
"|. c #198349",
" X c #188347",
".X c #198449",
"XX c #1A804C",
"oX c #1CBB2B",
"OX c #1FFC05",
"+X c #1CB230",
"@X c #1B9043",
"#X c #1DC624",
"$X c #1FF907",
"%X c #21EE0C",
"&X c #1DC027",
"*X c #1B8E44",
"=X c #1B8549",
"-X c #1A7F4C",
";X c #1FFD05",
":X c #2EC01F",
">X c #25E111",
",X c #1FF40A",
"<X c #1CAA34",
"1X c #1B9540",
"2X c #1DCC21",
"3X c #1DC724",
"4X c #1B9242",
"5X c #1A814B",
"6X c #1DCD20",
"7X c #26DA14",
"8X c #1DC923",
"9X c #1B8F44",
"0X c #1A824B",
"qX c #1B9142",
"wX c #1DCF1F",
"eX c #1FE311",
"rX c #1DCB22",
"tX c #1B8D44",
"yX c #1CC922",
"uX c #27C622",
"iX c #67B11C",
"pX c #23C722",
"aX c #1DC823",
"sX c #1B8C45",
"dX c #1A844A",
"fX c #19814C",
"gX c #33784A",
"hX c #DD3E3C",
"jX c #2A7B4A",
"kX c #1A814C",
"lX c #1B8449",
"zX c #18854A",
"xX c #307D48",
"cX c #D6443A",
"vX c #278049",
"bX c #1A854A",
"nX c #218249",
"mX c #5A6F44",
"MX c #DE413A",
"NX c #527145",
"BX c #1F8349",
"VX c #3D7947",
"CX c #E93D39",
"ZX c #D1463B",
"AX c #E53F39",
"SX c #337C48",
"DX c #19854A",
"FX c #3A7A47",
"GX c #BE4C3C",
"HX c #C14B3C",
"JX c #1C8449",
"KX c #238249",
/* pixels */
"    . X o O . .       . + @ # $ % & * . .     . . = - ; .       ",
"    . : X > , . < .   . 1 > 2 3 4 + 5 1 . . < . 6 7 ; # .       ",
"      . : 8 4 9 0 q < . w e 7 & 1 w @ 3 + r t y & u : . <       ",
"      < . i * p > a s . d ; 1 f 8 g e 1 w t 7 h * $ . <         ",
"        < . q j p > k s l z . w 4 - 5 $ t 7 x c q . <           ",
"    < q q q q s $ p ; v + @ # p > 6 4 * 8 h j q . q q q q <     ",
"b n q k m M N B V C 4 Z A > ; 7 = w S D & F s s G N M m k q n b ",
"H J = K L P I U l $ ; 4 t = Y = < q 6 > p i T G U I P L K = J H ",
"R E W Q ! ~ ^ / U 1 j ( & F T s . 6 > p j T f U / ^ ~ ! Q W E R ",
") _ ` ' ] [ { ^ } | 1 j ( > O  .Z 7 u j r l | } ^ { [ ] ' ` _ ) ",
"..X.o.O.+.@.@.#.$.%.&.*.j 8 3 j 4 ; : q l &.%.$.#.@.@.+.O.o.X...",
"=.-.;.:.>.,.<.1.2.3.4.5.q i 6., 6.c . . 5.4.3.2.1.<.,.>.:.;.-.=.",
"7.8.8.9.0.q.q.w.e.r.t.y.q $ u.7 5 : . . y.t.r.e.w.q.q.0.9.8.8.7.",
"i.p.;.a.q.q.q.q.s.d.f.g.. . $ 2 h.. < q g.f.d.s.q.q.q.q.a.;.p.i.",
"j.k.l.z.q.q.q.q.x.c.v.b.q . $ 2 h.. . h.5 v.c.x.q.q.q.q.z.l.k.j.",
"n.m.M.N.B.q.q.q.V.C.> X  .. $ 2 h.. # 5 & 6.Z.V.q.q.q.B.N.M.m.n.",
"A.n.S.D.F.G.H.J.K.L.F 7 P.. $ 2 h.< g > S w h K.J.H.G.F.D.S.n.A.",
"n.) ) I.U.Y.T.R.E.W.< Q.u.< $ 2 h.w @ !.< . ~.^./.T.Y.U.I.) ) n.",
"n.n.n...(.)._.`.'.].q B 7 ; $ 2 j X 7 1 q [.{.}.|._.).(...n.n.n.",
"n.n.n.n... X.XXXoXOX.  .Z @ $ 2 j 2 F w . OX+XXXn..X X..n.n.n.n.",
"n.n.n.n.n.n.n.R @X#X$Xq 1 7 5 > 5 > %X. $X&X*XR n.n.n.n.n.n.n.n.",
"n.n.n.n.n.n.n.=X-X+X;X. # 0 :X:X7 >X,X. ;X<XXX=Xn.n.n.n.n.n.n.n.",
"n.n.n.n.n.n.n.n.R 1X2X].. i :X:X7 c . ].3X4XR n.n.n.n.n.n.n.n.n.",
"n.n.n.n.n.n.n.n.=X5X4X6X].h.7X> Y ,Xb 8X9X0X=Xn.n.n.n.n.n.n.n.n.",
"n.n.n.n.n.n.n.n.n.=X0XqXwX].r eXT [.rXtX0X=Xn.n.n.n.n.n.n.n.n.n.",
"n.n.n.n.n.n.n.n.n.n.=X0X@XyXuXiXpXaXsXR =Xn.n.n.n.n.n.n.n.n.n.n.",
"n.n.n.n.n.n.n.n.n.n.n.=XdXfXgXhXjXkXdX=Xn.n.n.n.n.n.n.n.n.n.n.n.",
"n.n.n.n.n.n.n.n.n.n.n.n.lXzXxXcXvXbXlXn.n.n.n.n.n.n.n.n.n.n.n.n.",
"n.n.n.n.n.n.n.n.n.n.n.n.bXnXmXMXNXBXbXn.n.n.n.n.n.n.n.n.n.n.n.n.",
"n.n.n.n.n.n.n.n.n.n.n.n.zXVXCXZXAXSXDXn.n.n.n.n.n.n.n.n.n.n.n.n.",
"n.n.n.n.n.n.n.n.n.n.n.n.zXFXGXSXHXxXDXn.n.n.n.n.n.n.n.n.n.n.n.n.",
"n.n.n.n.n.n.n.n.n.n.n.n.bXJXKXJXKXJXbXn.n.n.n.n.n.n.n.n.n.n.n.n."
};
