/* XPM */
static char *_30567760d10494ab0aa9f3bde724e9el90td5v4xma02jXQ[] = {
/* columns rows colors chars-per-pixel */
"32 32 253 2 ",
"   c #1B854A",
".  c #1A8549",
"X  c #278B53",
"o  c #D8E6DD",
"O  c #FFFBFC",
"+  c #5FA87E",
"@  c #198448",
"#  c #1A8449",
"$  c #1A834A",
"%  c #1CBC2A",
"&  c #1FFA06",
"*  c #1FF709",
"=  c #268A52",
"-  c #CBDFD3",
";  c #F8F6F5",
":  c #FBF8F8",
">  c #EDF1ED",
",  c #5FA77E",
"<  c #167F48",
"1  c #1DBA2B",
"2  c #1FF30B",
"3  c #1FF708",
"4  c #278B54",
"5  c #CCE0D3",
"6  c #F9F7F7",
"7  c #FCF9F9",
"8  c #FDF9F9",
"9  c #E9EDEC",
"0  c #6EC86D",
"q  c #25BE1A",
"w  c #25DF12",
"e  c #1EF808",
"r  c #1FF609",
"t  c #1EF708",
"y  c #2C8E57",
"u  c #BDD3C5",
"i  c gray26",
"p  c #353434",
"a  c #343333",
"s  c #D4D2D2",
"d  c #FFFCFC",
"f  c #FEF9FA",
"g  c #E8F3E3",
"h  c #75D36A",
"j  c #25C215",
"k  c #26DD13",
"l  c #20F20A",
"z  c #2ACE19",
"x  c #35935F",
"c  c #AEC7B8",
"v  c #474646",
"b  c #050405",
"n  c black",
"m  c #323131",
"M  c #CAC8C8",
"N  c #FFF9FC",
"B  c #E4F1E0",
"V  c #7CD372",
"C  c #22D410",
"Z  c #2EBF1F",
"A  c #188347",
"S  c #409A68",
"D  c #DEE0DF",
"F  c gray4",
"G  c #B6B4B4",
"H  c #FFFDFD",
"J  c #FAF7F7",
"K  c #FFFBFF",
"L  c #9EDE97",
"P  c #20D40E",
"I  c #21EF0C",
"U  c #2ACF19",
"Y  c #2DC21E",
"T  c #24E311",
"R  c #198449",
"E  c #2A8D56",
"W  c #659E7E",
"Q  c #040705",
"!  c #FFFAFF",
"~  c #BEE8B8",
"^  c #55C849",
"/  c #25D413",
"(  c #21EC0D",
")  c #2DC41D",
"_  c #24E310",
"`  c #1B8549",
"'  c #1A804C",
"]  c #19804B",
"[  c #147A40",
"{  c #166011",
"}  c #010701",
"|  c #676666",
" . c #DDDADA",
".. c #FFFDFF",
"X. c #BEE8B9",
"o. c #53C846",
"O. c #23CA12",
"+. c #23E80E",
"@. c #1EF908",
"#. c #20F10B",
"$. c #28D317",
"%. c #2CC81C",
"&. c #1A7F4C",
"*. c #1B9043",
"=. c #1CBB2B",
"-. c #1CBA2B",
";. c #1FBB2A",
":. c #2DBD1F",
">. c #1B6214",
",. c #70726E",
"<. c #767374",
"1. c #E1E1E1",
"2. c #FFFEFF",
"3. c #C0E8BB",
"4. c #52C845",
"5. c #22EA0E",
"6. c #1DFB07",
"7. c #20F00B",
"8. c #25DE12",
"9. c #1A814B",
"0. c #1B9540",
"q. c #1CB230",
"w. c #1DC624",
"e. c #1FFC05",
"r. c #1FFB06",
"t. c #20F708",
"y. c #27D815",
"u. c #34CA24",
"i. c #A4E79C",
"p. c #F3FCF2",
"a. c #C4E9BE",
"s. c #50C843",
"d. c #24CA13",
"f. c #22EB0D",
"g. c #25E011",
"h. c #25DE13",
"j. c #1A824B",
"k. c #1B9242",
"l. c #1DCC21",
"z. c #1FFD05",
"x. c #1FF907",
"c. c #24E410",
"v. c #2ABE1B",
"b. c #A0DE97",
"n. c #BBE5B4",
"m. c #4EC741",
"M. c #25C914",
"N. c #29D118",
"B. c #1B9142",
"V. c #1DCD20",
"C. c #1FF409",
"Z. c #24E211",
"A. c #2DC11E",
"S. c #29CF18",
"D. c #25CE13",
"F. c #24CE12",
"G. c #28CE17",
"H. c #22EC0D",
"J. c #29D018",
"K. c #24E111",
"L. c #1DFA07",
"P. c #1A854A",
"I. c #18854A",
"U. c #1B8449",
"Y. c #1A844A",
"T. c #1DCF1F",
"R. c #1FF30A",
"E. c #2BCB1A",
"W. c #29CF19",
"Q. c #2DC31D",
"!. c #26DB14",
"~. c #21ED0D",
"^. c #22EA0D",
"/. c #21ED0C",
"(. c #1FF509",
"). c #1C8449",
"_. c #3A7A47",
"`. c #3D7947",
"'. c #218249",
"]. c #19814C",
"[. c #1CC922",
"{. c #20F30A",
"}. c #2BC91B",
"|. c #2BC81B",
" X c #23E70F",
".X c #238249",
"XX c #BE4C3C",
"oX c #E93D39",
"OX c #5A6F44",
"+X c #307D48",
"@X c #33784A",
"#X c #27C622",
"$X c #1EF907",
"%X c #26DA14",
"&X c #2EC01F",
"*X c #2ACD19",
"=X c #2CC51D",
"-X c #2CC61C",
";X c #1EFA07",
":X c #26DC13",
">X c #2CC71C",
",X c #337C48",
"<X c #D1463B",
"1X c #DE413A",
"2X c #D6443A",
"3X c #DD3E3C",
"4X c #67B11C",
"5X c #1FE311",
"6X c #22E90E",
"7X c #C14B3C",
"8X c #E53F39",
"9X c #527145",
"0X c #278049",
"qX c #2A7B4A",
"wX c #23C722",
"eX c #2CC41D",
"rX c #1F8349",
"tX c #1A814C",
"yX c #1DC823",
"uX c #1FFA07",
"iX c #1FF40A",
"pX c #20F20B",
"aX c #25E111",
"sX c #25E012",
"dX c #2EBE1F",
"fX c #2ACC1A",
"gX c #19854A",
"hX c #1B8C45",
"jX c #1DCB22",
"kX c #21EE0C",
"lX c #29D217",
"zX c #23E60F",
"xX c #1B8D44",
"cX c #1DC923",
"vX c #23E50F",
"bX c #27D915",
"nX c #1B8F44",
"mX c #1DC724",
"MX c #1CAA34",
"NX c #1DC027",
"BX c #28D616",
"VX c #1B8E44",
"CX c #1CBE29",
"ZX c #20F509",
"AX c #34CA25",
"SX c #27D616",
"DX c #1B8A47",
"FX c #1FBA2B",
"GX c #23E90E",
"HX c #2BC81C",
"JX c #198349",
"KX c #147B40",
"LX c white",
/* pixels */
"                              .   X o O + @ # $ % & * * * * * * ",
"                            #   = - ; : > , < 1 2 3 * * * * * * ",
"                            # 4 5 6 7 : 8 9 0 q w e r * * * t t ",
"                          @ y u i p a s d f g h j k e * r t l z ",
"                        @ x c v b n n m M d N B V C e r t l z Z ",
"                        A S D F n n n n G H J K L P e t I U Y T ",
"                        R E W Q n n n n G H ! ~ ^ / e e ( ) _ t ",
"                    ` $ ' ] [ { } n n |  ...X.o.O.+.@.#.$.%.t t ",
"                ` $ &.*.=.-.;.:.>.,.<.1.2.3.4.O.5.6.7.$.Y 8.r * ",
"              ` 9.0.q.w.e.r.t.y.u.i.p.K a.s.d.f.7.g.$.Y h.e t * ",
"            ` j.k.l.z.x.t e r c.Y v.b.n.m.M.f.#.N.) N.k @.r * * ",
"          ` j.B.V.r.t e C.+.Z.A.z S.D.F.G.H.#.J.) K.L.@.t t t t ",
"P.I.I.P.U.Y.*.T.r.t R.f.K.A.E.W.C.e t e e #.J.Q.!.~.^.5./.(.f.^.",
")._.`.'.I.].[.r.{.I 8.A.}.N.r t t t t 7.I U Y c.w Y }.|.N. XY }.",
".XXXoXOX+X@X#X$X%X&X&X*X7.7.7.7.7.7.7.E.=X-XT ;X:XN.R.t f.A.>XR.",
").,X<X1X2X3X4X5XY &X&XY >X>X>X>X>X>X>XA._ #.C.@.w A.$.(.6XQ.-X7.",
".X7X8X9X0XqXwX;X:XA.A.*X#.#.{.{.{.{.{.*X=X) K.t r w Y ) U f.) eX",
").+X,XrXP.tXyXuXiXpXaXY >Xz (.r t t t l pXN.A.sXe (.sXdXfX(.^.Q.",
"P.gXgXP.U.Y.hXjX& t iXkXc.A.}.fXR.t r t t l lXY sXzX) *X X}.*X( ",
"          ` $ xXcXr.t t (.f.vXY *X{.e t t e #.$.Y bX( 7.f.-Xf.t ",
"            ` j.nXmXz.x.t e r zXQ.*XD.F.G.5.$X#.$.Q.U !.(.^.t t ",
"              ` j.k.MXNXe.uXt (.=Xv.b.n.m.M.5.;XI c.BXA.!.$Xt * ",
"                ` $ ' VXq.CXZXBXAXi.p.K a.s.d.6X;X@.#.SXA.!.r * ",
"                    ` $ ' DXFX:.>.,.<.1.2.3.4.O.GX@.e pXBXHXt t ",
"                          JXKX{ } n n |  ...X.o.O.GXt e ( Q.sXt ",
"                        R E W Q n n n n G H ! ~ ^ / e t 7.lXA.w ",
"                        A S D F n n n n G H J K L P e r t l N.dX",
"                        @ x c v b n n m M d N B V C e * r t R.N.",
"                          @ y u i p a s d f g h j k e * * r t t ",
"                            # 4 5 6 7 : 8 9 0 q w e r * * * * * ",
"                            #   = - ; : > , < 1 2 3 * * * * * * ",
"                              .   X o O + @ # $ % & * * * * * * "
};
