/* XPM */
static char *df0b3bb896cc46fd96570b6a1c840133y0iw7oMOt2he9KkJ[] = {
/* columns rows colors chars-per-pixel */
"32 32 234 2 ",
"   c #020202",
".  c #000B00",
"X  c #050909",
"o  c #031601",
"O  c #362E34",
"+  c #3B3737",
"@  c #34302D",
"#  c #1E5A10",
"$  c #176516",
"%  c #13610D",
"&  c #3B462C",
"*  c #257B3A",
"=  c #59711D",
"-  c #74781F",
";  c #414739",
":  c #7A6121",
">  c #317950",
",  c #414D41",
"<  c #687C67",
"1  c #6B6E69",
"2  c #8C6B29",
"3  c #9F6233",
"4  c #B6613C",
"5  c #9E532B",
"6  c #039F1A",
"7  c #18BE06",
"8  c #26B717",
"9  c #32BC18",
"0  c #34B30F",
"q  c #138828",
"w  c #21803C",
"e  c #29BE24",
"r  c #37BD24",
"t  c #38B736",
"y  c #30AC2D",
"u  c #668116",
"i  c #42B918",
"p  c #66A61C",
"a  c #5B9C23",
"s  c #5E9336",
"d  c #629D28",
"f  c #639935",
"g  c #5CA527",
"h  c #5CB52D",
"j  c #54B230",
"k  c #6AA525",
"l  c #64A42B",
"z  c #6BA52C",
"x  c #65AA2A",
"c  c #6BAC2C",
"v  c #66A424",
"b  c #72AD29",
"n  c #6DB524",
"m  c #77B22D",
"M  c #66A534",
"N  c #6BAC33",
"B  c #6AAB3A",
"V  c #68A737",
"C  c #75AD33",
"Z  c #71AC3C",
"A  c #7BAF35",
"S  c #6DB335",
"D  c #6AB839",
"F  c #75B434",
"G  c #7BB534",
"H  c #75B935",
"J  c #75B43B",
"K  c #7BB63D",
"L  c #74B93C",
"P  c #7BBA3D",
"I  c #7CBA34",
"U  c #1CCE02",
"Y  c #1CCC0C",
"T  c #17CB08",
"R  c #1BD303",
"E  c #1CDA05",
"W  c #1BD30B",
"Q  c #1BDA0A",
"!  c #16D709",
"~  c #16C816",
"^  c #19D613",
"/  c #0FCF00",
"(  c #22CD0C",
")  c #28C50C",
"_  c #23D30C",
"`  c #23DB0D",
"'  c #26D709",
"]  c #24C511",
"[  c #2AC918",
"{  c #34C415",
"}  c #32C31D",
"|  c #35CB1E",
" . c #2CD314",
".. c #24DB13",
"X. c #2BDC15",
"o. c #29D719",
"O. c #34DB1C",
"+. c #31D51D",
"@. c #1DE708",
"#. c #1DF404",
"$. c #1DF40C",
"%. c #1DFA0A",
"&. c #1FF806",
"*. c #1BF612",
"=. c #1FED11",
"-. c #23EC0E",
";. c #25E60C",
":. c #22F207",
">. c #23F30B",
",. c #23F90C",
"<. c #27F70A",
"1. c #23E412",
"2. c #2CE513",
"3. c #25EC13",
"4. c #2BED13",
"5. c #2BE31C",
"6. c #26EC1B",
"7. c #2BEC1A",
"8. c #24E418",
"9. c #32E41C",
"0. c #32EC1C",
"q. c #35E718",
"w. c #23F113",
"e. c #2BF214",
"r. c #2BF41C",
"t. c #23F617",
"y. c #33F61C",
"u. c #2BC622",
"i. c #3AC627",
"p. c #26D722",
"a. c #34DB26",
"s. c #29E726",
"d. c #33EB22",
"f. c #38E726",
"g. c #37F624",
"h. c #37E235",
"j. c #2BF128",
"k. c #45C31C",
"l. c #54C72C",
"z. c #57C835",
"x. c #4AC931",
"c. c #62C23B",
"v. c #79C23A",
"b. c #7BC32F",
"n. c #598959",
"m. c #689551",
"M. c #48B843",
"N. c #5CBE52",
"B. c #77AA4C",
"V. c #7BB544",
"C. c #76BC43",
"Z. c #7BBB42",
"A. c #7BBB4A",
"S. c #76B647",
"D. c #73A755",
"F. c #7BB750",
"G. c #64BC58",
"H. c #749560",
"J. c #53C948",
"K. c #57C453",
"L. c #4DD547",
"P. c #6CC848",
"I. c #7EC244",
"U. c #7BC34B",
"Y. c #75C747",
"T. c #76C655",
"R. c #70DA46",
"E. c #6FE258",
"W. c #5DC860",
"Q. c #77D270",
"!. c #7CEB69",
"~. c #82BD3C",
"^. c #87BB38",
"/. c #83C33B",
"(. c #8D9A42",
"). c #B29D53",
"_. c #87AD46",
"`. c #82BC43",
"'. c #83BD4A",
"]. c #83B649",
"[. c #95AA58",
"{. c #81B953",
"}. c #99B447",
"|. c #A4B653",
" X c #89B965",
".X c #85C445",
"XX c #84C54C",
"oX c #85CB4D",
"OX c #8BCC4C",
"+X c #8BC646",
"@X c #8BD14D",
"#X c #84C352",
"$X c #8CCA53",
"%X c #8AC558",
"&X c #93CA56",
"*X c #93CE50",
"=X c #87C46A",
"-X c #B0C665",
";X c #85EE6E",
":X c #6AA482",
">X c #71A58F",
",X c #739489",
"<X c #7EC485",
"1X c #B8B1B4",
"2X c #9CEC95",
"3X c #95F28A",
"4X c #A3F498",
"5X c #B1D2A4",
"6X c #B4EDB3",
"7X c #B8F1B4",
"8X c #AEF0A9",
"9X c #B2CD96",
"0X c #CFE8B9",
"qX c #C8F9B5",
"wX c #C5E0A9",
"eX c #C4BDC5",
"rX c #CAC7C7",
"tX c #D8D7D7",
"yX c #D3CDD1",
"uX c #D3ECCE",
"iX c #CEFEC8",
"pX c #D8E8D5",
"aX c #D5FAD5",
"sX c #E4FED9",
"dX c #D3F7E2",
"fX c #EDFFE5",
"gX c #EEFFEC",
"hX c #E6F7E2",
"jX c #F3FFEE",
"kX c #F3FAE7",
"lX c #E8FCF5",
"zX c #F3FFF3",
"xX c #FDFEFC",
"cX c #F7FBF6",
/* pixels */
"^.OX~.P C.C.A.V.'.$Xl S S S S N V D.pXzX,X> q 6 ~ j.t.$.%.&.:.e.",
"m *X@XoXC.V V Z z Z l N N L C.Z D.qXhXcXlX:Xq y h.j.w.,.#.#.,.:.",
"/.OXI.C.M J S.d C.A.K J '.V.{.=X0XkXxXcXlXdX<Xy p.7.:.&.,.#.#.%.",
"+Xv.x S N M S.XX$XI.+XXXV.B.D.5X; O O tXxXzXaXQ.u.` >.#.,.,.$.$.",
"/.v v .XP L U.L H OXv.x %X X5X,       O rXcXfXqXE.) e.<.#.,.w.Q ",
"N K F F H L oXoXv.n n v.#Xm.uXX         1XxXsXsX;X{ 4.,.#.@.Q W ",
"B f N Z..XL .XF v./.b.+X&X XH.. .       eXcXfX8XJ.+.4.-.e.Q T o.",
"B Z S x c k ~.G I H v.@XXXT.=X# o . . 1 tXzX7XN.u.X.r.3.3.W 5.9.",
"z F c c p b ^.+XK I.C.P.P.z.r y % n.< pXgX7XK.u.5.w.=.r.Q R 1.y.",
"k .XF ~.G k G k a g j j 8 ] 9.+.M.2XaXsX8XN.8 5.3.r.r.Q / 1.e.-.",
"V.Z.&X+X`.K l L Y.z.0 7 g.r.-.0.i.y 3X3Xz.} f.4.7.Q ` R @.:.>.>.",
"z '.K $XXXl S h 0 { f.g.w.$.e.' ( | } }  .X.-.4._ ( o...4.<.>.>.",
"d J l x g g h z.{ 9.r.=.e.2.X._ U 0.4.e.3.y.0._ (  .O.9.2.E ;.w.",
"A &X].V.A.Y.l.{ f.7.3.1.2._ _ R -.:.:.#.$.1.Q ( O.O._  .o.Y ` 1.",
"}.-X-X[.].g k.q.2.2.5.( Y W e.>.<.:.t.6.6.^ T 8.7.0._ T o.f.s.W ",
"}.- 2 : (.c 9 q.1.W ] u.h.5.w.,.@.e.1...~ ^ 8.6.3.1.W W o.a.Y Y ",
"|.).5 4 2 u k.O.] ] 9 } ] ^ ! ! R U ( [ p.s.1.r.1.! Q 5.5.W U 9.",
"_.- 3 5 )._.i a.+.[ } [ f.d.X.d.q.0.9.T ^ ! -.4.....8.0.5.W W 7.",
"g '.= [._.D | 9.1.3...W _ _ f.2.4.:.:.<.w.! R _ o.( U _ ....! ! ",
"v.oX#XF.S.c.k. .g.@.w.@.` R ' ' 4.e.e.4.7.0.X._ O.O.q.2.2.7.6.6.",
"v.@XOX`.`.P D i ) g.e.>.y.;.` U ..[ i.r u.f.' ' )  .q.e.>.,.*.t.",
"P OX~.m A z N D l.) X.y.3.7.d.O.} y 3X4XK.e f.2.' _ E @.:.,.$.$.",
"XXXXv C C z F L v.R.9 ] f.f.s.a.t 2XsXfX8XK.u.5.8.1.` E E 3.w.t.",
"C.N N `.K P `.Z.K U.c.z.8 8 e t $ n.< pXjX7XJ.u.s.6.7.Q R 1.-.$.",
"B V A.#XP F ~.+X'.Z B U.Y.T.G.$ o     1 tXzX6XK.u.^ r.1.` R >.,.",
"B V f S.OXG m `.V.V.'.$X%X XH..   X     1XxXgX8XL...r.w.2.R @.e.",
"N J V l G I m P A.S.Y.@XXXf 0Xo         1XcXjXaX!.+.6.*.4.` ( O.",
"x x N N k b G OXB U.L D C.{.9X& .     @ rXjXgXiXE. .w.$.e.q._ Y ",
"p +X`.J M x L l z z N g XX%X XwX& + @ yXxXzXiXQ.[ E <.,.<.e.-.! ",
"n m $X#XXXC.a Z.K C C d XXS.%X X0XkXxXxXxXpX<XM.+.-.,.%.:.:.t.$.",
"l .XZ.XXI.x S H l C m K .X`.S.F.s 0XhXlXdX:X* y a.r.*.$.,.$.%.%.",
"M a z c a x S L P G G .X+X`.L B B.m.uXlX>X> w q ~ 3.*.*.,.,.$.%."
};
