/* XPM */
static char *a53cd4e20be84e6ef9b2cc3dc6275746zlS0OB0h6gNZyEmo[] = {
/* columns rows colors chars-per-pixel */
"32 32 226 2 ",
"   c #2E3815",
".  c #343A1E",
"X  c #3A3E23",
"o  c #3F392B",
"O  c #473D2C",
"+  c #493B32",
"@  c #4B3F38",
"#  c #443F33",
"$  c #503C3E",
"%  c #39471A",
"&  c #3F521A",
"*  c #3D4723",
"=  c #47561F",
"-  c #4C661C",
";  c #546C1E",
":  c #464B28",
">  c #475A26",
",  c #525B2E",
"<  c #454332",
"1  c #4A4332",
"2  c #4E4B3B",
"3  c #4C4638",
"4  c #524334",
"5  c #53443A",
"6  c #544E39",
"7  c #5A4939",
"8  c #4E5233",
"9  c #5B513F",
"0  c #585938",
"q  c #615338",
"w  c #4D6829",
"e  c #55642A",
"r  c #587328",
"t  c #5B6A34",
"y  c #596539",
"u  c #5E7A33",
"i  c #5E7136",
"p  c #4C6233",
"a  c #697D3C",
"s  c #647639",
"d  c #627B2A",
"f  c #5E4D43",
"g  c #554A44",
"h  c #5D5344",
"j  c #5C5744",
"k  c #614E45",
"l  c #655344",
"z  c #655A45",
"x  c #6C5D4B",
"c  c #675A49",
"v  c #725C4E",
"b  c #685A51",
"n  c #655852",
"m  c #725E55",
"M  c #626642",
"N  c #6C604D",
"B  c #696946",
"V  c #736C4C",
"C  c #76644E",
"Z  c #687644",
"A  c #747E49",
"S  c #74714E",
"D  c #6E6354",
"F  c #726353",
"G  c #796455",
"H  c #7A6C55",
"J  c #79665B",
"K  c #7C6C5A",
"L  c #756858",
"P  c #7D735B",
"I  c #797257",
"U  c #7A6D63",
"Y  c #7C7461",
"T  c #816B5A",
"R  c #856D56",
"E  c #84745E",
"W  c #8D7D5C",
"Q  c #91795F",
"!  c #806E62",
"~  c #837464",
"^  c #8A7665",
"/  c #8C7B64",
"(  c #8E7D6B",
")  c #877868",
"_  c #927D64",
"`  c #937F6C",
"'  c #9B7F6A",
"]  c #937E71",
"[  c #57961B",
"{  c #518E17",
"}  c #65991D",
"|  c #5DA21C",
" . c #5F8F2C",
".. c #5D9D24",
"X. c #5F9B2A",
"o. c #5F8437",
"O. c #619C2B",
"+. c #649D27",
"@. c #658B36",
"#. c #6A853D",
"$. c #688737",
"%. c #6C943C",
"&. c #699A37",
"*. c #72943D",
"=. c #73973C",
"-. c #658728",
";. c #5EA525",
":. c #5CA02F",
">. c #63A426",
",. c #6AAA26",
"<. c #64A52A",
"1. c #6BA42C",
"2. c #66AB2C",
"3. c #6AAD2C",
"4. c #66AA26",
"5. c #71A92F",
"6. c #6BB22B",
"7. c #72B32C",
"8. c #64A432",
"9. c #6BA433",
"0. c #66A933",
"q. c #6DAD33",
"w. c #6DA63A",
"e. c #6CAD39",
"r. c #65A639",
"t. c #73AE34",
"y. c #74A43C",
"u. c #74AC3C",
"i. c #78A839",
"p. c #6EB334",
"a. c #6EB13A",
"s. c #73B334",
"d. c #79B435",
"f. c #75B33B",
"g. c #7AB53D",
"h. c #74BA3C",
"j. c #7ABA3D",
"k. c #77BC35",
"l. c #7DC33C",
"z. c #748B44",
"x. c #78894A",
"c. c #6D9F40",
"v. c #739243",
"b. c #7A9D44",
"n. c #73934A",
"m. c #7E924D",
"M. c #7C9D4D",
"N. c #769D47",
"B. c #7B8F52",
"V. c #6B8345",
"C. c #6DAF45",
"Z. c #77A345",
"A. c #7BA444",
"S. c #75AC42",
"D. c #7CA549",
"F. c #78AA48",
"G. c #74B542",
"H. c #7BB344",
"J. c #7CBC43",
"K. c #7BBB48",
"L. c #75BA48",
"P. c #7DAA53",
"I. c #7DA453",
"U. c #7AB951",
"Y. c #7EC143",
"T. c #7EC14A",
"R. c #84BA3E",
"E. c #82C23F",
"W. c #858658",
"Q. c #839754",
"!. c #85A74A",
"~. c #81BC44",
"^. c #83B14A",
"/. c #84BD4C",
"(. c #88B94A",
"). c #85A657",
"_. c #85B351",
"`. c #8AB455",
"'. c #87BB54",
"]. c #8BBD52",
"[. c #89BB5A",
"{. c #94BB5A",
"}. c #8E816A",
"|. c #898765",
" X c #93846C",
".X c #96876B",
"XX c #8E9362",
"oX c #96926F",
"OX c #97976C",
"+X c #8E8476",
"@X c #948572",
"#X c #9B8774",
"$X c #9A8A73",
"%X c #9C8B7A",
"&X c #958A74",
"*X c #9B9472",
"=X c #9E927B",
"-X c #979171",
";X c #A08D6F",
":X c #A18771",
">X c #A48A75",
",X c #A28D7A",
"<X c #A4927B",
"1X c #A9947D",
"2X c #A6977B",
"3X c #83C344",
"4X c #84C44A",
"5X c #89C64C",
"6X c #86CB4A",
"7X c #89CB4D",
"8X c #86CA44",
"9X c #8CD14C",
"0X c #81C051",
"qX c #8DC454",
"wX c #86CA53",
"eX c #8BCE52",
"rX c #8CC55A",
"tX c #91C555",
"yX c #8DD457",
"uX c #91D157",
"iX c #9F9382",
"pX c #9C8E83",
"aX c #AA9484",
"sX c #AA9B84",
"dX c #A49989",
"fX c #AB9786",
/* pixels */
"q...<.Y.| 4.4.| ;.;.a.G.f.8.O.w.Z.P.[.qX3X7.7.j.H.S.w.+.1.,.[ <.",
"[ q.f.Y.j.6.4.Y.h.h.0.8.G.'.y. .I.).!.H.g.d.t.t.u.S.9.~.3Xj.3X<.",
"J.>.3.uX>.3X7Xj.wXY.a.O.S._.N.v.Q.Q.m.*.=.y.u.u.~...J.4X4X7Xp.q.",
"3XJ.j.t.1.1.g.7X4Xh.L.H._.b.z.x.W.W.W.W.x.z.=.y.1.f.<.2.G.K.4X2.",
"eXY.s.+.g.u.g.g.4XeXO._.v.x.OX|.W _ .X*X|.A #.Z.qXd.4.<.e.e.2.2.",
"J.J.f.f.~./.~.4X~.f.].b.m.A oX<X:X>X,X$XK 0 s M.^.t.j.f.8.e.f.q.",
"f.s.3X~.4XJ.5X/.u.rX=.).x.V  X,XaX,X] K l 6 M B.!.y.H.qXH.O.1.5.",
"<.s.J.eXs.j.f.f.u.Z.Q.x.XX}.G T ( K l 7 f L Y W.x.M.D.H.].~.1.1.",
"f.~.<.6X8X9X7X/._.v.Q.XXoX$X_ T H z 9 x K ] &X&X|.s u A.(.1.d.g.",
"9.{ j.j.6.4.q.qX*.x.OX-X$X<X,X@X) P E ( @X$X%X%XY 8 & r y.5.~.3X",
"tX5XY.;.l.8XH.&.#.A *XsXsXaX<X<X&X.X X$X$X#X] ) f o   - Z.~.eXY.",
"9.5Xs.>.<.[ &.%.a B / %XaX,X.X.X$X@X X}..X/ G k $ @ : w Z.qXyXh.",
"O...<.q.9.y.*.z.s B H K ^ ( }./ ( (  X$X$XE l 5 m U I Z v.'.uXL.",
"q.q.K.H.].{.Q.x.W.P K F v F E $X%X,X,X=X}.z 7 f ^ %X=XW.a %.H.0.",
"q.j.K.(.{.).Q.XXoX X( ~ J l H  XfXfX%X) N 3 1 l / ,XsX-Xs u Z.f.",
"0.q.H.^.v.m.XXoX.X$X$X` ~ x N G ~ @XP 9 2 j N F C R ^ P : > Z.qX",
"G.K.'.%.n.A oX2X=X X%X%X%Xx l F v F h 6 D )  X` Q R G c 8 p P.'.",
"8.G.S.@.s Z |.=X<X<X<X#X! f 4 c F z 4 c +XiX,X<X1X>X( n < , M.`.",
"..<.&.%.i M L ( ,X1X,XE k 5 9 K E T l D +XdXdXsX1X#XJ f 1 % $.!.",
"2...w.*.i M ~ ~ ^ ` / 7 5 h U &X>X:X/ E ~ +XiX=XE x 5 5 6 % - *.",
"[ >.].`.s B ~ J G T v + f ~ &X$X:X' #X.XH H / P q 7 + + 2 X = a ",
"h.3.5.A.r s S F J F 7 4 b pX%X.X_ .X1X@Xx z H x 7 4 @ @ <   > V.",
"h.j.d.i.-.r t B V z + 5 n +X}..X;X1X<X~ f k J F k 5 3 # * % w n.",
"J.4Xd.} i.b.d e , : O # h D H _ 2X$XK c 5 5 b L h 5 < . % w %.c.",
"4X1.8Xd.R.qXA.@.w > * X c x z H ( J f g 1 < 6 j 8 : * w $.%.w.9.",
"<.>.8X7.3X5X/.'.%.o.Z y 8 0 V N U n g 2 X * , t e u #.D._.w.<.q.",
"3.Y.l.8X4Xh.L.8.w.F.).n.t , B V D U 2 . % r @.A.^.^.H.H.g.f.s.<.",
"p.>.s.6XJ.wXwXT.7XJ.H.D.#.t t 0 y M , > r D.qX~.H.~.s.j.E.,.>.J.",
"<.q.Y.J.G.8.wXJ.>.E.j.H.`.N.s #.; d ; @.^.qXqXeXT.a.<.3.,.7.3X5X",
"J.J.3X8.0XrXS.q.s.| | 1.u.'.[._.{.].^.'./.h.T.a.:.L.G.3.k.3X5X~.",
"r./.9.O.O.w.O.q.s.,.6.3.2.f.0.f.q.~.H.w.q.X.a.8.C.r.0.J.3X9XuXh.",
"r.r.X.O.w.O.O.9.d.k.8Xk.h.yXp.4.3.p.f.e.q.<.wX0XU.U.K.J.k.l.6XY."
};
