/* XPM */
static char *xpm_[] = {
/* columns rows colors chars-per-pixel */
"32 32 224 2 ",
"   c #65533F",
".  c #677633",
"X  c #7C386C",
"o  c #7F3B76",
"O  c #752B6A",
"+  c #654744",
"@  c #735553",
"#  c #7A5659",
"$  c #6B534C",
"%  c #6E6253",
"&  c #777653",
"*  c #736D53",
"=  c #784A66",
"-  c #787662",
";  c #8A3575",
":  c #854579",
">  c #8C5776",
",  c #854E6B",
"<  c #906E6F",
"1  c #967979",
"2  c #8B6B73",
"3  c #569919",
"4  c #639A1C",
"5  c #5FA21E",
"6  c #61A419",
"7  c #5B9C29",
"8  c #5A9C30",
"9  c #639B21",
"0  c #669E2A",
"q  c #679C37",
"w  c #749B3C",
"e  c #6B8E3E",
"r  c #5EA42A",
"t  c #5AA42A",
"y  c #5DA734",
"u  c #64A424",
"i  c #69A525",
"p  c #64AB26",
"a  c #63A42B",
"s  c #6CA42C",
"d  c #6BAD2C",
"f  c #67AB29",
"g  c #72AD2D",
"h  c #72A52C",
"j  c #6CB32B",
"k  c #6AB929",
"l  c #74B62B",
"z  c #64A533",
"x  c #6BA332",
"c  c #66AB34",
"v  c #6DAC32",
"b  c #64A539",
"n  c #6CA33C",
"m  c #6DAB3A",
"M  c #72AC34",
"N  c #72AC3B",
"B  c #76A739",
"V  c #6CB135",
"C  c #6BB838",
"Z  c #74B333",
"A  c #7AB534",
"S  c #7CBC35",
"D  c #74B23B",
"F  c #7CB43A",
"G  c #7BBB3B",
"H  c #75BC37",
"J  c #7DC23C",
"K  c #77C138",
"L  c #78C02E",
"P  c #799647",
"I  c #798C57",
"U  c #7B9454",
"Y  c #6F8642",
"T  c #6CAC41",
"R  c #72AE41",
"E  c #7CAC49",
"W  c #76A544",
"Q  c #74B442",
"!  c #7BB443",
"~  c #76BB45",
"^  c #7BBA44",
"/  c #7EBD4C",
"(  c #74B44B",
")  c #7DB953",
"_  c #7E8460",
"`  c #7DC248",
"'  c #82B43B",
"]  c #81BD3D",
"[  c #82C337",
"{  c #84984D",
"}  c #868A5D",
"|  c #869958",
" . c #83AC4B",
".. c #82BD45",
"X. c #83BB4B",
"o. c #86B549",
"O. c #84AA53",
"+. c #87AA5A",
"@. c #93A75E",
"#. c #82B351",
"$. c #89B355",
"%. c #89B859",
"&. c #93BE5A",
"*. c #838A63",
"=. c #8B9A65",
"-. c #989D75",
";. c #938C73",
":. c #8CA763",
">. c #93A563",
",. c #98A868",
"<. c #99B767",
"1. c #9AA678",
"2. c #9BB876",
"3. c #A5AB7A",
"4. c #A9B97C",
"5. c #83C245",
"6. c #83C24B",
"7. c #8BC54C",
"8. c #85CA49",
"9. c #8ACA4C",
"0. c #88C643",
"q. c #92D24E",
"w. c #85C452",
"e. c #8AC855",
"r. c #94C857",
"t. c #8CD554",
"y. c #9DDA59",
"u. c #97C763",
"i. c #A2C861",
"p. c #892E88",
"a. c #9C3589",
"s. c #9B3496",
"d. c #9C3998",
"f. c #9A2E94",
"g. c #A33596",
"h. c #A43B9C",
"j. c #A8389C",
"k. c #9D2EA1",
"l. c #9F3AA2",
"z. c #A435A4",
"x. c #A53BA3",
"c. c #AA3DA2",
"v. c #AB3CAB",
"b. c #A736A9",
"n. c #B23EAC",
"m. c #AE3CB3",
"M. c #AC36AF",
"N. c #974884",
"B. c #9A598B",
"V. c #9C4496",
"C. c #905A8E",
"Z. c #A1468C",
"A. c #A3429D",
"S. c #A35499",
"D. c #966789",
"F. c #907383",
"G. c #A26F8B",
"H. c #A542A2",
"J. c #AC43A3",
"K. c #AC42AC",
"L. c #AB4AA6",
"P. c #B344AB",
"I. c #BA46AF",
"U. c #B34CAB",
"Y. c #B248A7",
"T. c #B454AD",
"R. c #BA51AC",
"E. c #B15DAB",
"W. c #AD46B1",
"Q. c #B84CB4",
"!. c #BB4CBB",
"~. c #B649B9",
"^. c #BD52B5",
"/. c #BD54BB",
"(. c #BD5BBB",
"). c #B959B7",
"_. c #AB62A8",
"`. c #B76BAB",
"'. c #B965B9",
"]. c #B470A1",
"[. c #C254BC",
"{. c #C25BBB",
"}. c #C658B7",
"|. c #C253B4",
" X c #C263BD",
".X c #C466B6",
"XX c #C273B3",
"oX c #BE54C3",
"OX c #BC5AC3",
"+X c #C454C4",
"@X c #C45CC4",
"#X c #C659C9",
"$X c #C15CD4",
"%X c #C968C3",
"&X c #CE7CCB",
"*X c #CB77C5",
"=X c #D878CD",
"-X c #D879D6",
";X c #D16DCD",
":X c #E17BD9",
">X c #E475D9",
",X c #9D8588",
"<X c #A08B88",
"1X c #B6A59B",
"2X c #ACB184",
"3X c #BA96A5",
"4X c #BE84BB",
"5X c #BE93B1",
"6X c #B8ABA2",
"7X c #C59BAD",
"8X c #C893AB",
"9X c #C689BA",
"0X c #C992BB",
"qX c #C89AB6",
"wX c #D39ABA",
"eX c #C2A5A9",
"rX c #CCA0BC",
"tX c #C3A1B6",
"yX c #CA82C5",
"uX c #D486CC",
"iX c #D689C8",
"pX c #D396C4",
"aX c #DB83D4",
"sX c #E280D3",
/* pixels */
"s s ( z B s a ` J k K 3 h 4 u G B B N r v t.i A s R X.e.[ L 3 d ",
"x ! ^ C N 6.a d [ J r p s 0 C ~ n O.P q #.X.3 ] N R X...[ 6 d 7 ",
"8 z ` G v 6.8.J A g d 6.q n b %.( :.-.* =.$.^ u ^ ` Q N ' d Q b ",
"8 b z X.$.r.Z H 4 A 7.6.m T ( 8 / :.- - @ & O.9.t./ D a A r./ ) ",
"y 8 %.=.2X,.o.[ A i 0 0.3 r 8 / r <.% > a.> | i.R 5.[ l i i ^ a ",
"y q 2.*.@ # >.<.<.P ,.{ P e U 4.O.} ,XX d.N.$ <.#.] [ k u 5.M d ",
"t q :.@ B.N.# 1 eXwX8X8XwX7XwXpX0XqX2 C.p.a.# 3.O.7.] l H 9.z b ",
"y T U % B.V.; 0XiXsX.X.X.X.X.X>X^.aX0X4Xh.Z.+ 3. ...5.S 7.^ ) t ",
"F '  .. , X pX&X-X@X[.P.Y.L.{.}.}.@X X-Xs.o _ %.n D ..6.7.7.G t ",
" .h 4 <.G.yX*XV.oXb.b.[.~.+Xg.j.[.n.>X|.-X= I w./ e.o.e.F 7.V r ",
"r.B h @.3XuXL.l.+Xb.M.M.+Xk.v.c.+Xj.g.=X-X0XI D X.B ..0 6.s V N ",
"F x w ;.pX&XH.x.$Xm.b.k.+Xk.m.b.#Xf.J.h. X9X=.+.,.4.| <.W a z D ",
"H n U eXXXx.c.v.+Xb.J.J.!.I.c.v.R.H.z.z.{.pX6X- <XF.> 1 >.$.m ~ ",
"t.R 1.qX.Xc.c.s.{.H.A.d.|.g.v.K. Xs.z.m.}.aX8XF.C._.%X; 2 ,.%.t ",
"k b 2X7X`.P.z.+X!.@X). X(.x./.oXOX@X/.z.}.=XaXS.S.E.Q.I.%X2 E 7 ",
"p ( -.7XiX}.oXW.I.Q.'.(.).(.[.!.!.v.Q.^.R.>X-XU.'.).+X[.!.B.Y f ",
"N W 2X7XuX).oX$X+X+X/.{./.(.^.@X+X+X#Xx.(.-X-XI..XR.oXoXW.B.,.x ",
"p %.3.tXXXs.W.K.n.[.h.g.{.U.{.(.d.v.z.U.(.uXiXB.S.T.OXW.'.< { o.",
"L C >.3XXXY.L.J.}.c.P.g.}.|.+X!.OXK.c.J.%X4X1X1 D.*X$Xp.< @.w.` ",
"k m :.1X].=XV.L.%Xf.n.c.[.n.(.W.OXx.J.A.'.tX_ *.<XD.S.D.,.7.5.8.",
"M h $.3.rXyXH.W.#Xm.v.P.OXW.%XW.(.d.J.d.].eX) ) ,.4.2X@.q 7 H 5.",
"w q E 2.3X_.&XH.+XM.m.b.x.Q.OXW.{.c.x. X9X1 <.( ' o.5.G V f F F ",
"&.! o.:.,X4XE.-X#Xb.n.z.h.(.{.|.}.R.{.-X-X= 2.( B F G j d Z v A ",
"%.q  .:.= o *X&X-X#Xn.c.(.T.R.}.R.sX=XaXs.N.I ) X.G J j p A s ^ ",
"X.w U   N.V.X 9X'.'.;X(.%X'. X-XaXiXwXXXA.a.@ >.%.5.S 0.i ..D ( ",
"~ W :.  N.: $ 1 tXrX8XwX7XwX0XpXqXtXG.> a.a.# >.$.D g S S 9 N N ",
"~ b :.<   @ } w | { ,.{ P @.{ | U =.< , j.Z.$ +.E F ' g i F s s ",
"C w.q P -.@.o.h 4 A ' G u G G c 8 ) , , : = =.) ! e.A i s 0...u ",
"^ 6.F A &.' o.i s 0.7.9.r / 5.D D E % 2 + } W ~ w.F i h D e.w.n ",
"6.6.0.f 4 ' M Z d ~ r.^ x 6.9.5.7 W -.* 2X$.q D ~ a d g X.r.^ z ",
"q.q.9.5.s D 7 c V w.~ X.N 7.y.9.Q N +.<.i.r.` c y a Z p 0.V ` 3 ",
"S H J e.^ x m n c c Q x 0 ' 0.G 9.Q s ..' G w.Q c V V p p j 5 u "
};
