/* XPM */
static char *_e30334ac7d04797b4942df0415c46fck4B0YNMXGM0zfHQi[] = {
/* columns rows colors chars-per-pixel */
"32 32 222 2 ",
"   c #65533F",
".  c #677633",
"X  c #7C386C",
"o  c #7F3B77",
"O  c #762A6A",
"+  c #664745",
"@  c #735453",
"#  c #7A5659",
"$  c #6B534C",
"%  c #6D6253",
"&  c #777654",
"*  c #736D54",
"=  c #744D68",
"-  c #797662",
";  c #8A3575",
":  c #844667",
">  c #864579",
",  c #8C5776",
"<  c #8B5275",
"1  c #906E6F",
"2  c #967979",
"3  c #8B6B73",
"4  c #569919",
"5  c #639B1C",
"6  c #5FA21F",
"7  c #61A419",
"8  c #5B9B29",
"9  c #5A9C30",
"0  c #639B21",
"q  c #669E2A",
"w  c #689C37",
"e  c #749B3C",
"r  c #6B8E3E",
"t  c #5FA42A",
"y  c #5BA629",
"u  c #5DA734",
"i  c #64A424",
"p  c #69A525",
"a  c #63A42B",
"s  c #6CA42C",
"d  c #6BAE2C",
"f  c #66AA28",
"g  c #72AD2D",
"h  c #72A52C",
"j  c #6CB22C",
"k  c #6BB928",
"l  c #76B72C",
"z  c #64A533",
"x  c #6BA332",
"c  c #66AB35",
"v  c #6DAB33",
"b  c #64A539",
"n  c #6BA43B",
"m  c #6DAC3B",
"M  c #72AC34",
"N  c #72AC3B",
"B  c #7AAC3A",
"V  c #75A538",
"C  c #6CB135",
"Z  c #6BB838",
"A  c #74B333",
"S  c #7BB535",
"D  c #7CBC35",
"F  c #74B23B",
"G  c #7CB53B",
"H  c #7BBB3C",
"J  c #75BC37",
"K  c #7CC23C",
"L  c #799647",
"P  c #798C57",
"I  c #7B9454",
"U  c #6F8640",
"Y  c #6CAC41",
"T  c #73AF42",
"R  c #78A745",
"E  c #7BB443",
"W  c #76BB45",
"Q  c #7BBA43",
"!  c #7EBD4C",
"~  c #74B445",
"^  c #7DB953",
"/  c #6FB843",
"(  c #7E8460",
")  c #7EC245",
"_  c #7BC24A",
"`  c #82B43B",
"'  c #81BD3E",
"]  c #81C437",
"[  c #84984D",
"{  c #86895D",
"}  c #859958",
"|  c #83AC4B",
" . c #82BD45",
".. c #83BB4B",
"X. c #86B549",
"o. c #84AA53",
"O. c #87AA5A",
"+. c #93A75E",
"@. c #82B351",
"#. c #89B455",
"$. c #89B858",
"%. c #93BE5A",
"&. c #838A63",
"*. c #8B9A65",
"=. c #989D75",
"-. c #938C73",
";. c #8CA763",
":. c #93A563",
">. c #98A868",
",. c #99B767",
"<. c #9AA678",
"1. c #9BB876",
"2. c #A5AA7A",
"3. c #A9B97C",
"4. c #83C244",
"5. c #83C24C",
"6. c #8BC54C",
"7. c #85CA49",
"8. c #8ACA4C",
"9. c #88C743",
"0. c #92D24E",
"q. c #85C452",
"w. c #8AC855",
"e. c #94C857",
"r. c #8FD156",
"t. c #93DC54",
"y. c #97C764",
"u. c #A2C861",
"i. c #892E88",
"p. c #9D3589",
"a. c #9B3496",
"s. c #9B3997",
"d. c #9A2E94",
"f. c #A33596",
"g. c #A43A9B",
"h. c #A8389C",
"j. c #9D2EA1",
"k. c #9F3AA2",
"l. c #A435A4",
"z. c #A53BA2",
"x. c #AA3DA2",
"c. c #AB3CAB",
"v. c #A636A9",
"b. c #AE3CB3",
"n. c #AD38AD",
"m. c #984785",
"M. c #9A598C",
"N. c #9D4396",
"B. c #905B8E",
"V. c #A1468C",
"C. c #A3429E",
"Z. c #A35499",
"A. c #966789",
"S. c #907384",
"D. c #A26F8B",
"F. c #AC43A3",
"G. c #AC42AC",
"H. c #A947A5",
"J. c #B344AC",
"K. c #BA46AF",
"L. c #B34CAB",
"P. c #B248A7",
"I. c #B454AD",
"U. c #BA51AB",
"Y. c #B15DAB",
"T. c #AE46B1",
"R. c #B94CB4",
"E. c #BB4CBB",
"W. c #B649B9",
"Q. c #BD53B5",
"!. c #BD54BB",
"~. c #BD5BBC",
"^. c #B959B7",
"/. c #AB63A8",
"(. c #B76BAB",
"). c #BA66B8",
"_. c #B470A1",
"`. c #C154B4",
"'. c #C254BC",
"]. c #C25BBB",
"[. c #C859B8",
"{. c #C34FBA",
"}. c #C263BD",
"|. c #C466B6",
" X c #C273B3",
".X c #BE54C4",
"XX c #BC5AC3",
"oX c #C354C4",
"OX c #C45CC4",
"+X c #C659C9",
"@X c #C15CD4",
"#X c #C969C3",
"$X c #CE7CCB",
"%X c #CB77C5",
"&X c #D878CD",
"*X c #D879D6",
"=X c #D16DCD",
"-X c #E17BD9",
";X c #E475D9",
":X c #9D8588",
">X c #A08B88",
",X c #B6A59B",
"<X c #ACB184",
"1X c #BA96A6",
"2X c #BE84BB",
"3X c #BE93B1",
"4X c #B8ABA2",
"5X c #C59BAD",
"6X c #C893AC",
"7X c #C689BA",
"8X c #C992BB",
"9X c #C89AB6",
"0X c #D39ABA",
"qX c #C2A5A9",
"wX c #CCA0BC",
"eX c #C4A1B6",
"rX c #CA82C6",
"tX c #D486CC",
"yX c #D689C8",
"uX c #D396C6",
"iX c #DB84D4",
"pX c #E280D3",
/* pixels */
"v 8 b ^ q v b y y y N N W t 4 d x E _ 7.4.G F W E N s 0 x z 4 i ",
"4 v ~ !  .M c _ W C m x n $.o.U >.} ..4.H G M s F F s  .q.Q ) 6 ",
"D 7 s e.p 4.8.Q 6.6.a a @.<., M.M.1 +.6.8 c A S  .0 H 6.w.e.A j ",
"] ] ` M p i D 6.6.G 4.R :.3 %XE.E.(.1 >.w C d p p S p s E ..7.f ",
"r. .N i l k l D 6.w.s :.2 ; R.E.E.W.i.A.O.H C j 9.S g p s g p f ",
"....F F K ] D 4. .E ..} , #XQ.oXE.oX@XB.<X .H K H g S S p s A d ",
"T T _ ) 5.Q 6. .~ q.V 3.3 (.Y.I.I.I.%XA.3.X.H H  .F G 6.Q t z C ",
"x F Q r.T @.| R m ! ..>.>XA.Z.|.|.Z.B.:X>.B N ..%.#.E E q.W z c ",
"A H i 8.y.,.2.2.$.q.E O.- S.Z.P.L.M.-.} o.Q ! ^ :.>.;.^ W Z c / ",
"i 4  .o.}   # + ( P I &.4X3XiX*X*XyX,XP O.,.1.&.@ @ $ *.R z 5.q.",
"r...#.& < V.p.V.o > 8X7XuXyX&X-X-XiX2XwXqX2 = > N.; V.: { #.e.` ",
"c @.*.@ m.f.i.s.a.*X*X}.].].[.Q.].~.#X(._.7X*Xa.g.p.h.m.+ 3.u.` ",
"t w * 3 < X B.2X*XR.&Xg.l.b.h.Q.z.L.F.H.s.}.*X*X7XA.; : 3 * ,. .",
"M R <.- % :XS.7X}.;Xf.x.l.l.!.R.OXl.x.F.G.z.].&X8XS.1 @ % =.#.s ",
"V | $.O.,.{ 9XiXOXJ.l.a.H.s.OXc.'.G.G.k.g.F.U.pXrXwX&.O.o.R N F ",
"V V E ! a } 0XU.[.'.oXOXI.}.~.E.oXs.XXXX^.].[.U.iX9XI a F 8 W w.",
"H Q w.9 ~ 3.0X;X`.h.c.l.G.G..XE.OX'.E.T.T.L.`.`.-XuX} v F 4.8.H ",
"i F b ~ 9 I uX}.[.f.c.b.l.c.!.!.!.'.oX'.OX~.`.U.}.8X} F 4.8.t.9.",
"0 q n Y t r 6X|.P.OXj.j.K.f.z.~.].L.K.K.T.W.~.I.}.9X+.H Q 5.6.B ",
"h q w T 4 L 0X|.L.W.oXoX`.Q.~.^.~.].[.'..Xc.z.].}.6X[ 6 a x N x ",
"4 a 5.5.4.[ 6X|.J.E.v.l.F.s.).~.~.g.f.h.G.l.l.x.].0X[ ' 8.W 5.a ",
"K i v 6.i >.0X#X'.v.b.v.F.C.^.~.!.g.J.J.c.c.b.J.=X8X:.G 6.r.W / ",
"j K g S p L 9X*XOXv.v.b.x.F.OXR.+X{.F.d.T.b.v.oX~.wXI G 9.G 5.c ",
"K 9.S 5 A ,.qXtX*XoXoX+XoX].Q.J.oXc.'.#X+X.X+X*X).eX[ 5 p M m c ",
") d K A ' ,.2 7X$XC.l.z.F.a.oXT.+XG.F.H.L.H.*X$X7X2 e g p F c b ",
"a a 7.A X.} # X yX%XH.F.x.x.l..X+XG.H.C.N.$X/.rXX @ [ X. .C 8 m ",
"x 5.5.e.>.# m.N.O yXtX&Xg.h.J.].Q.a.P.&X$X/.2Xo s.> @ +.| F F x ",
"V N v #.<X@ M.M.< D.1X0X X|.(.yXyX X X_.wX1X:X= m.< + >.%.p s  .",
"z m H ..;.&.$ % . ,.:.=.qX5X5X5X5X5XqX,X<.1.,.*.+ + & L N f 4.8.",
"E Q ) z $.1.;.I X.5 x L I <.<X=.<X2.*.;.#.E ..@.} *.;.e Q 9.8.K ",
"s Q z z 9 w w n G M V V n T x E R %.F M V w R w e e n q.5.5.0.l ",
"s x w 9 u u y c ` ` e.H J t.Z y C f k k V e %.$...Q W Z Q 5.0.D "
};
