/* XPM */
static char *xpm_[] = {
/* columns rows colors chars-per-pixel */
"32 32 224 2 ",
"   c #65533F",
".  c #677633",
"X  c #7C386C",
"o  c #7F3B76",
"O  c #752B6A",
"+  c #664844",
"@  c #735453",
"#  c #7A5659",
"$  c #6B534C",
"%  c #6D6252",
"&  c #777653",
"*  c #736D54",
"=  c #754C68",
"-  c #756D62",
";  c #8A3575",
":  c #844567",
">  c #864579",
",  c #8C5776",
"<  c #83566A",
"1  c #906E6F",
"2  c #967979",
"3  c #8B6B73",
"4  c #569919",
"5  c #639A1C",
"6  c #5FA21E",
"7  c #61A419",
"8  c #5B9B29",
"9  c #5A9C30",
"0  c #639B21",
"q  c #669E2A",
"w  c #679C37",
"e  c #739C3D",
"r  c #6B8E3E",
"t  c #5EA42A",
"y  c #5AA52A",
"u  c #5DA734",
"i  c #64A424",
"p  c #69A525",
"a  c #64AB26",
"s  c #63A42A",
"d  c #6CA42C",
"f  c #6BAE2C",
"g  c #67AB2A",
"h  c #72AD2D",
"j  c #72A52C",
"k  c #6CB22C",
"l  c #6ABA2B",
"z  c #74B62B",
"x  c #64A533",
"c  c #6BA333",
"v  c #66AB35",
"b  c #6DAC32",
"n  c #64A539",
"m  c #6CA53B",
"M  c #6DAC3A",
"N  c #72AC34",
"B  c #72AD3B",
"V  c #7BAC3A",
"C  c #75A538",
"Z  c #6CB135",
"A  c #6DB73C",
"S  c #74B333",
"D  c #7BB535",
"F  c #7BBA34",
"G  c #74B23B",
"H  c #7CB43A",
"J  c #7BBB3C",
"K  c #75BC37",
"L  c #7CC23C",
"P  c #7DC035",
"I  c #78C02E",
"U  c #799647",
"Y  c #7B8959",
"T  c #7B9454",
"R  c #6F8642",
"E  c #6DAC41",
"W  c #72AE41",
"Q  c #78A746",
"!  c #74B443",
"~  c #7BB443",
"^  c #76BB45",
"/  c #7BBA44",
"(  c #7EBC4B",
")  c #74B44B",
"_  c #7EB953",
"`  c #7B8062",
"'  c #7DC24B",
"]  c #7CC245",
"[  c #82B43B",
"{  c #81BD3D",
"}  c #82C337",
"|  c #84984D",
" . c #86895E",
".. c #869958",
"X. c #83AC4A",
"o. c #82BD45",
"O. c #83BB4B",
"+. c #86B549",
"@. c #84AA53",
"#. c #87AA5A",
"$. c #93A75E",
"%. c #82B351",
"&. c #89B355",
"*. c #8BB25C",
"=. c #89BB57",
"-. c #93BE5A",
";. c #838A63",
":. c #8B9A65",
">. c #989D75",
",. c #938C73",
"<. c #8CA763",
"1. c #93A563",
"2. c #98A868",
"3. c #99B767",
"4. c #9AA678",
"5. c #9BB876",
"6. c #A5AB7B",
"7. c #A9B97C",
"8. c #82C244",
"9. c #83C24C",
"0. c #8BC54C",
"q. c #85CA49",
"w. c #8ACA4C",
"e. c #88C643",
"r. c #92D24E",
"t. c #85C452",
"y. c #8AC854",
"u. c #93C857",
"i. c #8CD554",
"p. c #9DDA59",
"a. c #97C763",
"s. c #A2C861",
"d. c #892E87",
"f. c #9C3589",
"g. c #9B3496",
"h. c #9C3998",
"j. c #9A2E94",
"k. c #A33596",
"l. c #A43B9C",
"z. c #A8389C",
"x. c #9D2EA1",
"c. c #9F3AA2",
"v. c #A335A4",
"b. c #AA3DA3",
"n. c #AB3CAB",
"m. c #A637A7",
"M. c #B23EAC",
"N. c #AE3CB3",
"B. c #AC36AF",
"V. c #974884",
"C. c #9A598B",
"Z. c #9D4396",
"A. c #905A8E",
"S. c #A1468C",
"D. c #A3429E",
"F. c #A35499",
"G. c #966789",
"H. c #907383",
"J. c #A26F8C",
"K. c #AC43A3",
"L. c #AC42AC",
"P. c #A847A5",
"I. c #B344AB",
"U. c #BA46AF",
"Y. c #B34CAB",
"T. c #B248A7",
"R. c #B454AD",
"E. c #BA51AC",
"W. c #B15DAB",
"Q. c #AE46B1",
"!. c #B94CB4",
"~. c #BB4CBB",
"^. c #B649B9",
"/. c #BD53B5",
"(. c #BD54BB",
"). c #BD5BBC",
"_. c #B959B6",
"`. c #AB62A8",
"'. c #B76BAB",
"]. c #B965B9",
"[. c #B470A1",
"{. c #C354BC",
"}. c #C25BBB",
"|. c #C658B7",
" X c #C253B4",
".X c #C263BD",
"XX c #C466B6",
"oX c #C273B2",
"OX c #BF54C3",
"+X c #BC5AC3",
"@X c #C354C4",
"#X c #C45CC4",
"$X c #C659C9",
"%X c #C15CD4",
"&X c #C969C3",
"*X c #CE7CCB",
"=X c #CB77C5",
"-X c #D878CD",
";X c #D879D6",
":X c #D16DCD",
">X c #E17BD9",
",X c #E475D9",
"<X c #9E8688",
"1X c #B6A59B",
"2X c #ACB184",
"3X c #BA96A5",
"4X c #BE84BB",
"5X c #BE93B1",
"6X c #B8ACA0",
"7X c #C59AAE",
"8X c #C893AB",
"9X c #C689BA",
"0X c #C993BA",
"qX c #C89AB6",
"wX c #D39ABA",
"eX c #C2A5A9",
"rX c #CCA0BC",
"tX c #C3A1B6",
"yX c #CA82C5",
"uX c #D486CC",
"iX c #D689C8",
"pX c #D396C4",
"aX c #DB84D5",
"sX c #E280D5",
/* pixels */
"F r.9.^ A ] ^ ( =.-.e C k l g A y l i.I ~ u.[ [ d y u u 9 w q q ",
"F r.9.9.y.n E e w Q e j S G =.U ) c ! n C N V [ n w n 9 u n ~ c ",
"L w.e.J w <.:. .~ ( +.&.$.:.2X2X4.2X2XT e c 5 [ T <.5.<.v ] ^ / ",
"w.8.a V U &   + :.3.5.4.1X6X7X7X7XqX5X6X,.$.3.. % $ ;.:.O.J B x ",
"o.d p -.2.+ , S.= H.3XrX[.oXoXuXuX].XXoXwX3X<X= C.C.@ 2X&.b B N ",
"c V N X.1.@ > h.o 4X'.yX-XT.g.(.|.I.z.z.;XyXiXO D.V.# 2.u.9.O.c ",
"m 8 S / X.| @ ; yX`.*XD.D.D.Q.$X+Xc.m.b.K.P.=XuX; # 1.+.S q.s i ",
"n v D j j e 2 9X*X;XP.Y.T.D.M.$XQ.@Xg.b.m.c.Z.*X9X,.3.} S ] k ] ",
"v Z b d 5 | tX].;X%XOX$X#X|.M.@XI./.#X).%X@X@X;XuXeX3.V 5 z e.L ",
"Z t.H e.V | rX].$XB.N.N.j.K.{.@X!.#Xb.n.N.v.m.$XaXqXU p D h L k ",
"! ^ i.0.H $.0X:XM.N.n.n.I.K.l.(.)._.D.b.B.B.b.@X&XwX$.p w.f a P ",
"u O./ y.{ | wX}.b.v.m.L.b.k.h.}.).].h.n.x.B.~.T.XX8X| e.O.9.i 4 ",
"c V b t 4 | 8X&X}.m.c.+X(.|.{.)._._./.{.@X@X^.Y.XXrXU 4 W w s j ",
"V 0.9.( { *.qX].R.{._.^.U.U.Y.}.).b.k.U.x.x.@XK.XX3XR y E m q 0 ",
"} p.w.8.H ..0X&XY.|.].+X@X@X}.(.+X(.n.m.N.n.k.|.XXwXT y ) w G i ",
"{ w.o.G b T pXsX|. XT.Y.Q.~.(.#X~.{.L.M.m.M.z.|.,XwX2X) 9 y.^ J ",
"y.^ 8 A u T wXsXE.|.}.).+X+Xg.{.~.)..XR.#XOX X|. XwX..s ' ) C C ",
"G C Q Q #.Y rX*XsXE.b.h.c.L.n.@Xn.#Xg.P.g.b.M.#XaXqX;.3.#.*.X.Q ",
"c &.>.% @ 1 2 wX*X}.v.L.K.n.c.$X^.OXc.v.z.k.;X&X9X3 <X% - >.Q b ",
"o.3.* 3 > : C.8X;X;X&XS.K.K.Y.b.~.k.N.v.z.,X!.;X4XA.X , - * w 8 ",
"[ s.7.  > z.f.K.g.;X9X[.].=X).}./.|.}.}..X>X>Xg.h.f.z.; # :.%.v ",
"[ u.+.1 = V.; z.> = H.6XrX'.aX;X,X-XuXpX8X0X= o S.f.S., & *.=.i.",
"y.9.c Q :.$ @ @ Y 5.3.<.Y 1XiX;X,XaX5X6X;.T Y ` + # $ ..@./ 4 p ",
"^ n Z ^ _ <.>.2._ ( / %...2 C.Y.T.F.H.& #.~ ' &.6.7.3.a.w.i { S ",
"u u ^ t./ Q &.-.O.B V 2.<XC.F.XX].F.A.<X2.O.( C X.X.%.B i.^ G x ",
"Z g s J 0.H B 9.J J +.7.G.=XQ.Q.W.`.'.H.7.C t.! o.O./ 8.( t.W W ",
"b Z f p D [ h F L J o.7.A.+XOXOX@X(.&X, $.o.~ O.e.P } } G G O.O.",
"a p h d p h F q.k N { #.G.d.OXOX~.U.; 2 2.q 0.e.D z z z s B 8.y.",
"a q.O.Q p p D p a f Z w 2.1 '.(.~.oX3 2.Q 9.H 0.0.F a a N [ } } ",
"k S u.y.e.{ 5 o.D h f 8 0.$.2 C.F., 4.&.x g 0.0.o.w.8.p u.h 7 I ",
"y } ^ t.o.d B ! f N D J 8.=.| 2.R Q =.c c b Z ^ ' x N / O.! f 4 ",
"i 4 x b 0 d B ! ~ G H 8.q.] ~ N v 6 t ^ B A y y y n c s _ n 8 f "
};
