/* XPM */
static char *xpm_[] = {
/* columns rows colors chars-per-pixel */
"32 32 225 2 ",
"   c #65533F",
".  c #677633",
"X  c #7B386C",
"o  c #7F3B77",
"O  c #762A6A",
"+  c #654744",
"@  c #735553",
"#  c #7A5659",
"$  c #6B534C",
"%  c #6E6253",
"&  c #777654",
"*  c #726D53",
"=  c #774A66",
"-  c #787662",
";  c #8A3575",
":  c #854579",
">  c #8C5776",
",  c #8A4E72",
"<  c #906E6F",
"1  c #967979",
"2  c #8B6B73",
"3  c #569919",
"4  c #639B1C",
"5  c #5FA21E",
"6  c #61A419",
"7  c #5B9B2A",
"8  c #5A9C30",
"9  c #639B21",
"0  c #669E2A",
"q  c #679C37",
"w  c #739C3D",
"e  c #6B8E3E",
"r  c #5EA32A",
"t  c #5BA62A",
"y  c #5DA734",
"u  c #64A324",
"i  c #69A525",
"p  c #64A923",
"a  c #63A42A",
"s  c #6CA42C",
"d  c #6BAE2C",
"f  c #67AB29",
"g  c #72AD2D",
"h  c #70A62C",
"j  c #6CB22B",
"k  c #6ABA2A",
"l  c #76B72C",
"z  c #65A533",
"x  c #6BA433",
"c  c #66AB34",
"v  c #6CAC33",
"b  c #63A539",
"n  c #6BA43B",
"m  c #6DAB3A",
"M  c #72AC33",
"N  c #72AC3B",
"B  c #7BAC3A",
"V  c #75A538",
"C  c #6CB135",
"Z  c #6DB73C",
"A  c #74B333",
"S  c #7AB534",
"D  c #7BBA34",
"F  c #74B23B",
"G  c #7CB53A",
"H  c #7BBB3C",
"J  c #75BC37",
"K  c #7DC23C",
"L  c #79C137",
"P  c #799647",
"I  c #7B8959",
"U  c #7B9454",
"Y  c #6F8640",
"T  c #6DAC41",
"R  c #73AF42",
"E  c #7CAC48",
"W  c #76A544",
"Q  c #7BB444",
"!  c #76BB45",
"~  c #7BBA44",
"^  c #7DBD4A",
"/  c #74B445",
"(  c #7DB953",
")  c #6FB843",
"_  c #7EC24C",
"`  c #7CC245",
"'  c #82B43B",
"]  c #81BD3E",
"[  c #81C437",
"{  c #84984D",
"}  c #86895E",
"|  c #859958",
" . c #83AC4A",
".. c #82BD45",
"X. c #83BB4B",
"o. c #86B549",
"O. c #84AA53",
"+. c #87AA5A",
"@. c #93A75E",
"#. c #82B351",
"$. c #89B355",
"%. c #89B858",
"&. c #93BE5A",
"*. c #838A63",
"=. c #8B9A65",
"-. c #989D75",
";. c #938C73",
":. c #8CA763",
">. c #93A563",
",. c #98A868",
"<. c #99B767",
"1. c #9AA678",
"2. c #9BB876",
"3. c #A5AA7B",
"4. c #A9B97C",
"5. c #82C245",
"6. c #83C24B",
"7. c #8CC54C",
"8. c #85CA49",
"9. c #8ACA4C",
"0. c #88C643",
"q. c #92D24E",
"w. c #85C452",
"e. c #8ACB52",
"r. c #8AC456",
"t. c #93C857",
"y. c #8FD156",
"u. c #93DC54",
"i. c #97C764",
"p. c #A2C861",
"a. c #892E87",
"s. c #9D3589",
"d. c #9B3496",
"f. c #9E3D96",
"g. c #993599",
"h. c #9A2E94",
"j. c #A33595",
"k. c #A43A9B",
"l. c #A8389C",
"z. c #9D2EA1",
"x. c #9F3AA2",
"c. c #A335A4",
"v. c #A53BA1",
"b. c #AA3DA2",
"n. c #AB3CAB",
"m. c #A736A9",
"M. c #AE3CB3",
"N. c #AD38AD",
"B. c #974785",
"V. c #9A598C",
"C. c #9D4396",
"Z. c #905A8E",
"A. c #A1468C",
"S. c #A3429D",
"D. c #A35499",
"F. c #966789",
"G. c #907383",
"H. c #A26F8C",
"J. c #A442A3",
"K. c #AC43A3",
"L. c #AC42AC",
"P. c #AB4AA6",
"I. c #B343AC",
"U. c #BA46AF",
"Y. c #B34CAB",
"T. c #B248A7",
"R. c #B454AD",
"E. c #BA51AB",
"W. c #B15DAB",
"Q. c #AE46B1",
"!. c #B84CB4",
"~. c #BB4CBB",
"^. c #B649B9",
"/. c #BD52B5",
"(. c #BD54BB",
"). c #BD5CBC",
"_. c #B959B6",
"`. c #AB62A8",
"'. c #B76BAB",
"]. c #BA66B8",
"[. c #B470A1",
"{. c #C154B4",
"}. c #C354BC",
"|. c #C25BBB",
" X c #C75AB7",
".X c #C34FBA",
"XX c #C263BD",
"oX c #C466B6",
"OX c #C273B2",
"+X c #BE54C3",
"@X c #BC5AC3",
"#X c #C354C4",
"$X c #C45CC4",
"%X c #C659C9",
"&X c #C15CD4",
"*X c #C869C3",
"=X c #CE7CCB",
"-X c #CB77C5",
";X c #D878CD",
":X c #D879D6",
">X c #D16DCD",
",X c #E17BD9",
"<X c #E475D9",
"1X c #9E8688",
"2X c #B6A59B",
"3X c #ACB184",
"4X c #BA96A5",
"5X c #BE84BB",
"6X c #BE93B1",
"7X c #B8ACA0",
"8X c #C59AAE",
"9X c #C893AC",
"0X c #C689BA",
"qX c #C993BA",
"wX c #C89AB6",
"eX c #D39ABA",
"rX c #C2A5A9",
"tX c #CCA0BC",
"yX c #C3A1B6",
"uX c #CA82C5",
"iX c #D486CC",
"pX c #D689C8",
"aX c #D396C5",
"sX c #DB83D4",
"dX c #E280D5",
/* pixels */
"u 5 j p f d C y / 6.' ' ..h R e.K 0.' h z ) c c b m x ..9.K A L ",
"3 ` A 9.p A c y c 6.t.p.<.$.m ~ 9.u.X.V 6.! w.m c 8 B i 5.9.q.q.",
"c ~ t.X.g d r ! F z @.4.* -.W 7 ..9.7.x ~ y.G g F C F i i 0.0.6.",
"x w.r.R h i Q 6.~ P } + 2 % E N F 5.^ a e.7...s p .. .&.N ~ 6.~ ",
"9 5.0.s i S 7.o.( =.= , , @ +.y v F K 5 H G S 4 g o.>.,.{ V w.Z ",
"s s G i g ' G Q @.$ A.l.; 1 I U U | @.{ { >.{ O.{ { @ + & :.b ` ",
"F F 3 G S l N $.,.@ ; s.2 G.yXwXaXqXwX8XeX9XtXyX< @ : : + =.W / ",
"Q F ..i 0.H ~ &.,.@ k.l.0XqXiXsXdX*XXXXX|.>X@X].0X; C.B.$ U w ^ ",
"~ s S i j K H ..( I B.g.:XiX,XE.{.E.R.).b.M.%X:X-X0Xo = =.( q $.",
"F M A j l G ~ N ^ 2.= =X:X|.E. X{.{.).v.c.M.m.%X;XW.5X1X<.^ E &.",
"G F c C [ X.o.R ) <.G.uXXXv.v.|.P.@X^.J.m.N.M.#Xv.=X`.4X2.' q w ",
"[ H 7 0 @.3X4.,.( :.7X[.f.L.k._.Q.*X^.+Xn.N.M.%XQ.C.iXtX3.$.w g ",
"8...7.<.F.Z.F.1X| I yX'.K.b.x.@XQ.}.U.}.l.T.h.*XT.D.;X[.2X:.N k ",
"` %.@.< a.&X*XF.;.4X5X*XT.b.L.$X^.$X!. Xj.L.K.}.b.S.T.OX4X>.F k ",
"~ | 1 '.+X#X!.D.B.pXsX).I.l.n.g.(.}.U.|.k.k..Xn.I.L.g.].8X3.r.f ",
"h ,.V.!.+XM.R.XXY.:X<X).v.%X+X#X$X(.|._.|.{.%X#X%X%X/.iX8X3XW C ",
"d Y H.~..X#XW.XXT.<X,X/.(.!.n.~.~.).@X_._.).~.I.^.+X}.pX9X-.E t ",
"3 +.> oXU.(.W.D.D.:X;X Xj.+X$X).}.(.v.|.]._.$X/.+Xx.I.'.8X3Xn k ",
"t %.1.2 o *X'.V.G.6XpX|.M.c.g.XXI.N.j./.f.J.v.$Xh.b.l.oX6X3XR u.",
"! m O.>.G.> 2 1XI 2XpX).c.c.J.R.n.c.U.}.K.L.b.~.L.b.l.OX7XU c L ",
"m z z W ,.+.4.<.+.=.0XoXj.l.d.$Xv.M.z.#Xc.m.M.&Xv.J.;XeX-.P m F ",
"Z m s 0.s X.V o.R I qX:X<Xj.b.#Xn.n.z.+Xm.M.m.#Xx.J.iX9X:.q M t.",
"t C 9.B r.Q r.^ w.I : :X{.<XN.}.l.j.$X!.~.N.m.#XS.=XeX1 @.4 M ' ",
"t H 7.7.6...R m #.I o s.:XXX*X|.{. XK.Y.I.#X#X:XuXiXO , .  .' ' ",
"t _ G 7.D [ X. .,.$ A.l.0XuXsXE.<XoXoXoXoXoX:XiX0XX A.D.% U n c ",
"y b e.D l K 7. .3., s.; Z.G.wXeXeXeX9XeX9XeXtXrX;.# B.V.$ :.q t ",
"m v 5.p j [ ~ #.<.  A.l.X 1XI | 4.P e P { ,.P <.<.@.# @ I 2.q y ",
"0 ~ p i l [ 6.N p.=., : , % &.y ( 0 a 3 0.i i S ..$.,.3X:.:.8 y ",
"( ..t.M i F ` e.9.O.& @ > - +.X.8 / T T 6.9.S 4 A A t.$.#.c b 8 ",
"b ! g ' N R 6.` u o.$.=.* 1.%.Q r.8 T q 6.j h A K 9.6.C ! ` m 8 ",
"7 v 6 [ ..X.R F H 3 X.( 8 W  .V ~ F q 0 u t L 0.j a X.N m ~ Q s ",
"d 3 D [ e.X.R z S u y.c t m W V F u 9 s 3 L k K ` a x N a ! q s "
};
