/* XPM */
static char *_db0ec0234b8433aafa26960f905ee3cjWGsixzQHbpXoUHc[] = {
/* columns rows colors chars-per-pixel */
"30 30 2 1 ",
"  c black",
". c #CB7419",
/* pixels */
"                              ",
"                              ",
"                              ",
"....   ............   ........",
"....   ............   ........",
"....   ............   ........",
"....   ............   ........",
"....   ............   ........",
"....   ............   ........",
"                              ",
"                              ",
"                              ",
"............   ...........   .",
"............   ...........   .",
"............   ...........   .",
"............   ...........   .",
"............   ...........   .",
"............   ...........   .",
"                              ",
"                              ",
"                              ",
"..   ...........   ...........",
"..   ...........   ...........",
"..   ...........   ...........",
"..   ...........   ...........",
"..   ...........   ...........",
"..   ...........   ...........",
"                              ",
"                              ",
"                              "
};
